<svg xmlns="http://www.w3.org/2000/svg" width="990" height="670" fill="none" viewBox="0 0 990 670"><path fill="#252551" fill-rule="evenodd" d="M421.012 102.004q-5.853.13 0 3.5-2 1.5 0 3-12.08 8.746-19-4 1.425-3.647 0-7.5-6.148-.276-3-4.5a10.5 10.5 0 0 0-5-3.5 89.6 89.6 0 0 0-11 7q.393 2.217-1 4a153 153 0 0 1-15 7l-1 2q3.264 5.041 2.5 11a106 106 0 0 0-10.5 6.5 4.46 4.46 0 0 1 2 1.5 110 110 0 0 0 2 6.5 34.8 34.8 0 0 0-9.5 5.5 78 78 0 0 0 0 10q-4.966 6.04-9-1-2.514.842-4 3a47 47 0 0 1-1.5 8q-19.812 4.89 0 7.5.987 2.857 3.5 4.5a73 73 0 0 1 5.5-6q10.305 1.378 6 11-4.006 1.153-7.5 1-4.239-4.722-7 0-7.808.203-11-7-1 4-2 0l-1 3-1-1q-2.115 3.576-6 5-1.171 2.166.5 4 4.227 4.966 10.5 7 2.57-6.807 9.5-4.5 1.416 4.078 1 8.5a4.93 4.93 0 0 0-3 .5q2 1.5 0 3 5.062 1.573 8.5 5.5 2.8-3.462 3-8-.094 4.9 4.5 6.5l-1 1q3.347 1.916 5 5.5 1.419.73 3 1 9.353-4.5 10-15-6.459.295-6-6 2.436.21 3.5-2a347 347 0 0 0 5 5q5.138-4.344 7-11 15.314-7.299 19.5-23.5a12.8 12.8 0 0 0-2-5.5 25.7 25.7 0 0 1 6-6 32.4 32.4 0 0 0 1.5-6l4-2q3.74 5.312 10 11a34 34 0 0 1 3.5 6q-1.24 3.661 0 6.5a128 128 0 0 0-3 2 115 115 0 0 0 7 10.5 15 15 0 0 0 3.5-3l2 4 1-1q1.42 5.357 5.5 8 4.175 5.21 6 11.5 8.244.897 7-7.5 4.928.346 7.5-4 3.811 8.019 4 0 1.006 1.129 2.5 1 17.519 33.04 35 66a2.43 2.43 0 0 1-.5 2q-.981-1.794-1.5 0a12 12 0 0 1 1 6h-3q.393-2.217-1-4-1.388-1.712-2.5 0-.084-6.13-5-11a15 15 0 0 1-3.5 3q-8.154-3.525-17-2.5-4.547 3.839-6.5 9.5a23.16 23.16 0 0 1-8.5 5.5 9.5 9.5 0 0 0-1.5 2.5 44.4 44.4 0 0 0 1.5 18 9.1 9.1 0 0 1 5 1q2.45-.702 3.5-3 6.695 1.848 12 6a14.5 14.5 0 0 0 4.5-4.5q4.558-.504 8.5-2.5 10.21 5.878 3 15-9.654 6.44-7 18a3.94 3.94 0 0 0 2 1q2.305-.802 4.5-1a52 52 0 0 1 5.5-8q3.14 1.119 6 1 1.964-3.587 3 0 3.888-4.402 9.5-6 1.824.753 3.5 1 .745-10.505 2-1l1-4q.796 6.046 4.5 2 11.073 25.807-9 45.5-23.17 14.883-50 8a257 257 0 0 1-17-6 7510 7510 0 0 0-93-52.5q2.371-2.463 2-6-2.217.393-4-1-1.558-3.046-5-4a251 251 0 0 1 13-3.5q4.846-2.586 1-6a28 28 0 0 1-5-1.5q-10.681 4.07-7.5-7 2.627-2.568 2-6a299 299 0 0 0-10-10l-7.5 1.5q-2.023 1.158-2.5 3.5l-1-2q-1.089 6.376-4 12-3.882-.466-8.5-1.5 5.137-2.397 1-6l1-1q-1.75-.75-2.5-2.5-2.029 1.806-5 2l-4.5-.5q-2.586-.673-2-2.5a42.5 42.5 0 0 1-11 5.5q-3.357 2.862-4 6-8.885.474-18.5-1.5-6.671.451.5 1.5-2.337.315-4 1.5a464 464 0 0 0-64-4 3185 3185 0 0 0 6-42 360.2 360.2 0 0 0-83.5-1q-30.254-2.766-26-33 7.896-16.891 25.5-23.5 46.095-15.98 95-16.5a2594 2594 0 0 1 20.5-115q7.921-15.346 24.5-20.5a711 711 0 0 1 73-1q27.69.954 41.5 24.5 20.769 38.541 41.5 77M771.012 25.005q-3.945 1.41 0 3.5-2.085 2.475-4.5 1.5l-3 4q-.255 7.548-1.5 15-2.325 1.067-3 3.5c1.24 3.206 2.57 6.374 4 9.5a99 99 0 0 0 5.5 2 7.9 7.9 0 0 0 2-4c2.04.922 4.21 1.255 6.5 1 .54-2.08 1.38-4.08 2.5-6 2.61 1.98 3.78 4.648 3.5 8-2.46 1.122-4.62 1.122-6.5 0a54 54 0 0 0-4.5 2l3 2c2.04 4.806 4.37 9.473 7 14 .67-1.334 1.33-2.667 2-4-.39 1.218.28 2.052 2 2.5-.33.333-.67.666-1 1a62.7 62.7 0 0 1 1.5 10.5 98 98 0 0 0 3.5 15.499c-3.63 7.671-5.97 16.171-7 25.5q2.775 6.166 1.5 13c-7.49 4.219-7.32 7.887.5 11.001q2.505-2.5 3 1c-1.53 2.638-2.7 5.305-3.5 8 2.17 1.964 4.5 2.298 7 1l3 5c.33-.333.67-.667 1-1 1.03 2.391 1.2 4.724.5 7q2.01 5.791 4.5 0a365 365 0 0 1 3 14c.2-3.297 1.04-6.297 2.5-9 1.93 9.874 3.26 19.54 4 29a768 768 0 0 0-86-47.5q-67.533-29.42-139-12a18772 18772 0 0 0 62.5-112.5q9.903-16.326 28.5-20.5a523 523 0 0 1 77 0q9.795 1.436 18 6.5" clip-rule="evenodd"/><path fill="#26264c" fill-rule="evenodd" d="M771.012 25.005c6.36 4.354 10.53 10.354 12.5 18a3025 3025 0 0 1 22.5 138.999c-1.46 2.703-2.3 5.703-2.5 9a365 365 0 0 0-3-14q-2.49 5.791-4.5 0c.7-2.276.53-4.609-.5-7-.33.333-.67.667-1 1l-3-5c-2.5 1.298-4.83.964-7-1 .8-2.695 1.97-5.362 3.5-8q-.495-3.5-3-1c-7.82-3.114-7.99-6.781-.5-11q1.275-6.834-1.5-13c1.03-9.329 3.37-17.829 7-25.5a98 98 0 0 1-3.5-15.5 62.7 62.7 0 0 0-1.5-10.5c.33-.333.67-.666 1-1-1.72-.448-2.39-1.282-2-2.5-.67 1.334-1.33 2.667-2 4a125 125 0 0 1-7-14l-3-2a54 54 0 0 1 4.5-2c1.88 1.124 4.04 1.124 6.5 0 .28-3.351-.89-6.018-3.5-8a23.7 23.7 0 0 0-2.5 6c-2.29.257-4.46-.076-6.5-1a7.9 7.9 0 0 1-2 4 99 99 0 0 1-5.5-2 172 172 0 0 1-4-9.5q.675-2.431 3-3.5 1.245-7.449 1.5-15l3-4q2.415.975 4.5-1.5-3.945-2.089 0-3.5" clip-rule="evenodd"/><path fill="#25254b" fill-rule="evenodd" d="M421.012 102.004a4501 4501 0 0 1 43 79q-1.494.129-2.5-1-.189 8.019-4 0-2.572 4.346-7.5 4 1.244 8.397-7 7.5-1.825-6.29-6-11.5-4.08-2.643-5.5-8l-1 1-2-4a15 15 0 0 1-3.5 3 115 115 0 0 1-7-10.5q1.184-.82 3-2-1.24-2.839 0-6.5a34 34 0 0 0-3.5-6q-6.26-5.688-10-11l-4 2a32.4 32.4 0 0 1-1.5 6 25.7 25.7 0 0 0-6 6 12.8 12.8 0 0 1 2 5.5q-4.186 16.201-19.5 23.5-1.862 6.656-7 11a347 347 0 0 1-5-5q-1.064 2.21-3.5 2-.459 6.295 6 6-.647 10.5-10 15a10.3 10.3 0 0 1-3-1q-1.653-3.584-5-5.5l1-1q-4.594-1.6-4.5-6.5-.2 4.538-3 8-3.438-3.927-8.5-5.5 2-1.5 0-3a4.93 4.93 0 0 1 3-.5q.416-4.422-1-8.5-6.93-2.307-9.5 4.5-6.273-2.034-10.5-7-1.671-1.834-.5-4 3.885-1.424 6-5l1 1 1-3q1 4 2 0 3.192 7.203 11 7 2.761-4.722 7 0 3.494.153 7.5-1 4.305-9.622-6-11a73 73 0 0 0-5.5 6q-2.513-1.643-3.5-4.5-19.812-2.61 0-7.5a47 47 0 0 0 1.5-8q1.486-2.158 4-3 4.034 7.04 9 1a78 78 0 0 1 0-10 34.8 34.8 0 0 1 9.5-5.5 110 110 0 0 1-2-6.5 4.46 4.46 0 0 0-2-1.5 106 106 0 0 1 10.5-6.5q.764-5.959-2.5-11l1-2a153 153 0 0 0 15-7q1.393-1.783 1-4a89.6 89.6 0 0 1 11-7 10.5 10.5 0 0 1 5 3.5q-3.148 4.224 3 4.5 1.425 3.853 0 7.5 6.92 12.746 19 4-2-1.5 0-3-5.853-3.37 0-3.5M256.012 180.004a80.6 80.6 0 0 1 22.5 4 387 387 0 0 0 5.5 9.5 42.3 42.3 0 0 0 11 3.5v3h7q.732 4.816-2 8.5l3 5q-5.166 8.367 0 16-2.73 1.469-3.5 4.5a28 28 0 0 0-1.5-5q2.032-1.763-.5-3a4.93 4.93 0 0 0-.5 3q-3.876.103-6 3.5 4.199.658 3 4l4 1a16.24 16.24 0 0 1-8 0 32.2 32.2 0 0 0-8-9 1557 1557 0 0 1-11-4.5q-3.069-10.568-12-17a65 65 0 0 0-6-9 31 31 0 0 0 4-9 103 103 0 0 1-1-9" clip-rule="evenodd"/><path fill="#f32b82" fill-rule="evenodd" d="M627.012 183.004q4.332-.766 7 2a16.9 16.9 0 0 0-8 1 66.5 66.5 0 0 0 8 6 17 17 0 0 1 3.5 8q.803-2.656 2.5-1 1.712 1.388 0 2.5a86.4 86.4 0 0 1 8.5 13.5l1-1q1.893 4.885 6 8 2.446 3.682.5 7.5a4.46 4.46 0 0 1 2 1.5q.317 6.957 5 12-1.876 5.115 0 11a4.93 4.93 0 0 1 3 .5q-3.549.66-7 1.5-6.823-.186-13-2a18.5 18.5 0 0 0 6-.5q-5.814-1.437-7-6l2-1a173 173 0 0 0-4-9.5q-3.792-1.526 0-3.5a15.3 15.3 0 0 1-1.5-4.5q-3-1-4-4l-1 1a54 54 0 0 0-2.5-6.5q.393-7.374 0-14-1.423-.926-2.5.5a47 47 0 0 1-6-4q-2.42 1.683-3.5-1.5a4.93 4.93 0 0 0-3-.5q.483-3.334-2-5.5l1-1q-5.492-.873-9.5-4.5l-1 1a15.3 15.3 0 0 0-4.5-1.5q.834-.575 1-1.5 10.938-4.065 23-4" clip-rule="evenodd"/><path fill="#ed2583" fill-rule="evenodd" d="M634.012 185.004q2.916 2.142 5 5.5 5.327.93 11 1.5.035 3.64 1.5 7a332 332 0 0 0 9.5 14.5l-1 1q3.77 3.085 4 7a586 586 0 0 1 11.5 25.5q1.395 5.025-2.5 8.5l1 1q-2.987.56-5 2.5-5.425-.599-10-3 3.451-.84 7-1.5a4.93 4.93 0 0 0-3-.5q-1.876-5.885 0-11-4.683-5.043-5-12a4.46 4.46 0 0 0-2-1.5q1.946-3.818-.5-7.5-4.107-3.115-6-8l-1 1a86.4 86.4 0 0 0-8.5-13.5q1.712-1.112 0-2.5-1.697-1.656-2.5 1a17 17 0 0 0-3.5-8 66.5 66.5 0 0 1-8-6 16.9 16.9 0 0 1 8-1" clip-rule="evenodd"/><path fill="#f9327d" fill-rule="evenodd" d="M604.012 187.004q-.166.925-1 1.5 2.402.41 4.5 1.5l1-1q4.008 3.627 9.5 4.5l-1 1q2.483 2.166 2 5.5a4.93 4.93 0 0 1 3 .5q1.08 3.183 3.5 1.5a47 47 0 0 0 6 4q1.077-1.426 2.5-.5.393 6.626 0 14a54 54 0 0 1 2.5 6.5l1-1q1 3 4 4a15.3 15.3 0 0 0 1.5 4.5q-3.792 1.974 0 3.5a173 173 0 0 1 4 9.5l-2 1q1.186 4.563 7 6a18.5 18.5 0 0 1-6 .5 243 243 0 0 0-17-1q-1.144-1.152-3-1.5l6-1a12.8 12.8 0 0 1-6-3l1-1q-9.059-8.946-14-20.5a58 58 0 0 0-9.5-9 39.7 39.7 0 0 1-3-12q-5.236-3.963-7.5-10-2.022 2.942-4 .5 2.65-3.585 7-5a2.43 2.43 0 0 0-2-.5q4.507-2.665 10-3" clip-rule="evenodd"/><path fill="#d71a88" fill-rule="evenodd" d="M671.012 185.004a160 160 0 0 1 21 5q.116 1.875 2 2.5-2.826.324-5 2 3.82.101 6.5 2.5l1-1 1 3q1.37-1.73 2.5.5l-1 1a108 108 0 0 1 7.5 20.5 237 237 0 0 1 13.5 23.5l-1 1c3.337 8.813 4.84 17.979 4.5 27.5q.555 1.375 1.5 2.5-3.616 3.106-6 7 3.895 1.168 0 1.5a166 166 0 0 1-15-9q1.314.197 2-1-1.712-1.388 0-2.5-.816-1.075-2-1.5 2.504-3.695 2-7.5a255 255 0 0 1-7-20 3.94 3.94 0 0 1 1-2q-7.497-10.242-11.5-22.5-.75-2.75-3.5-3.5l1-1q-6.422-9.078-11-19.5-5.546-1.794-9-6.5a65 65 0 0 0 5-2.5" clip-rule="evenodd"/><path fill="#e52284" fill-rule="evenodd" d="M627.012 183.004q16.5-2 33 0a124 124 0 0 0-6 4.5 222 222 0 0 1 15 20q1.375.561 2.5 1.5 3.134-.368 6 0 .051 2.52.5 4.5-5.057.261-3 4.5-2.846 1.752-.5 5a29.5 29.5 0 0 0 4.5 2.5q-1.653 3.602-.5 7.5a4.46 4.46 0 0 1 1.5-2q1.87 2.259 0 4.5a14.4 14.4 0 0 1 2.5 5.5q6.856-1.68 8.5 5.5a20.5 20.5 0 0 1-2.5 3.5q-2.363-6.096-3.5.5.763 1.753 2.5 2.5a35 35 0 0 1 4.5-1q2.085 2.555 4.5 2a11.3 11.3 0 0 0 1.5 3.5 10.3 10.3 0 0 0-4 1.5l8 3a6.8 6.8 0 0 1-3 1.5q1.19 4.42 5 6.5 1.184.425 2 1.5-1.712 1.112 0 2.5-.686 1.197-2 1a275 275 0 0 0-35-16q2.013-1.94 5-2.5l-1-1q3.895-3.475 2.5-8.5a586 586 0 0 0-11.5-25.5q-.23-3.915-4-7l1-1a332 332 0 0 1-9.5-14.5 17.8 17.8 0 0 1-1.5-7q-5.673-.57-11-1.5-2.084-3.358-5-5.5-2.668-2.766-7-2" clip-rule="evenodd"/><path fill="#f93f76" fill-rule="evenodd" d="M594.012 190.004a2.43 2.43 0 0 1 2 .5q-4.35 1.415-7 5 1.978 2.442 4-.5 2.264 6.037 7.5 10a39.7 39.7 0 0 0 3 12 58 58 0 0 1 9.5 9q4.941 11.554 14 20.5l-1 1a12.8 12.8 0 0 0 6 3l-6 1q1.856.348 3 1.5a194 194 0 0 0-18 2q-1.144-1.152-3-1.5l4-1-6-1 2-1q-1.491-1.993-3-4 .608-1.418 2-2a23 23 0 0 1-5-2l1-1a29.5 29.5 0 0 1-2.5-4.5l-1 1a16.64 16.64 0 0 0-5-6 245 245 0 0 0-9.5-19q-2.743 1.173-4.5-2l-1 1a73.3 73.3 0 0 0-11.5-8.5q1.857-1.035 0-1.5 11.789-8.391 26-12" clip-rule="evenodd"/><path fill="#e11c89" fill-rule="evenodd" d="M660.012 183.004q5.83.22 11 2a65 65 0 0 1-5 2.5q3.454 4.706 9 6.5 4.578 10.422 11 19.5l-1 1q2.75.75 3.5 3.5 4.003 12.258 11.5 22.5a3.94 3.94 0 0 0-1 2 255 255 0 0 0 7 20q.504 3.805-2 7.5-3.81-2.08-5-6.5a6.8 6.8 0 0 0 3-1.5l-8-3a10.3 10.3 0 0 1 4-1.5 11.3 11.3 0 0 1-1.5-3.5q-2.415.555-4.5-2a35 35 0 0 0-4.5 1q-1.737-.747-2.5-2.5 1.137-6.596 3.5-.5a20.5 20.5 0 0 0 2.5-3.5q-1.644-7.18-8.5-5.5a14.4 14.4 0 0 0-2.5-5.5q1.87-2.241 0-4.5a4.46 4.46 0 0 0-1.5 2q-1.153-3.898.5-7.5a29.5 29.5 0 0 1-4.5-2.5q-2.346-3.248.5-5-2.057-4.239 3-4.5-.449-1.98-.5-4.5-2.866-.368-6 0a9.5 9.5 0 0 0-2.5-1.5 222 222 0 0 0-15-20 124 124 0 0 1 6-4.5" clip-rule="evenodd"/><path fill="#cc1a89" fill-rule="evenodd" d="M692.012 190.004a161 161 0 0 1 22 9 43 43 0 0 0-5 1.5q.343 3.053 2.5 6.5 1.524-1.701 2 1l1-1q2.51 2.264 5 2a82 82 0 0 1 10 22 50.3 50.3 0 0 1 6 12c2.92 11.412 5.76 22.912 8.5 34.5a206 206 0 0 0-2.5 9.5 20.7 20.7 0 0 0-3.5 2.5q1.71 1.112 0 2.5a52 52 0 0 1-5 1c-4.7-3.014-9.37-6.014-14-9q3.895-.332 0-1.5 2.384-3.894 6-7a9.3 9.3 0 0 1-1.5-2.5c.34-9.521-1.163-18.687-4.5-27.5l1-1a237 237 0 0 0-13.5-23.5 108 108 0 0 0-7.5-20.5l1-1q-1.13-2.23-2.5-.5l-1-3-1 1q-2.68-2.399-6.5-2.5 2.174-1.676 5-2-1.884-.625-2-2.5" clip-rule="evenodd"/><path fill="#f94b6f" fill-rule="evenodd" d="M568.012 202.004q1.857.465 0 1.5a73.3 73.3 0 0 1 11.5 8.5l1-1q1.757 3.173 4.5 2a245 245 0 0 1 9.5 19 16.64 16.64 0 0 1 5 6l1-1a29.5 29.5 0 0 0 2.5 4.5l-1 1a23 23 0 0 0 5 2q-1.392.582-2 2 1.509 2.007 3 4l-2 1 6 1-4 1q1.856.348 3 1.5l-18 4q1.65-1.587 4-2.5l-9-1 4-1q-2.29-2.052-4.5-1.5-1.717-6.696-6-12-1-2-2 0-1.206-3.666-4.5-5.5a67 67 0 0 0 2-5.5q-.519-1.794-1.5 0-.438-4.383-4.5-6-3.003-8.499-9.5-12a13.9 13.9 0 0 0-4 3 14.7 14.7 0 0 0-3.5-3 80.3 80.3 0 0 1 14-10" clip-rule="evenodd"/><path fill="#bf1a89" fill-rule="evenodd" d="M714.012 199.004q6.477 2.238 12 6c-.44-.065-.77.101-1 .5q3.405 1.411 6 4c-.93.388-1.59 1.055-2 2q.96 4.957 4.5 8.5c.24 2.789.91 5.456 2 8q2.085-1.972 3 1a3.95 3.95 0 0 1 2-1 15.9 15.9 0 0 0 4.5 2.5c.91 1.699 1.24 3.533 1 5.5h3a766 766 0 0 1 6 18.5q.78 3.279 0 7c2.47 5.366 3.8 10.866 4 16.5-.33.667-.67 1.333-1 2q1.95 3.83 3 8 .615 5.397-1.5 11a38 38 0 0 1-4.5 4.5c4.35.668 8.02 2.668 11 6a33.2 33.2 0 0 1-12-3.5 336 336 0 0 1-21-13 52 52 0 0 0 5-1q1.71-1.388 0-2.5a20.7 20.7 0 0 1 3.5-2.5 206 206 0 0 1 2.5-9.5 1941 1941 0 0 0-8.5-34.5 50.3 50.3 0 0 0-6-12 82 82 0 0 0-10-22q-2.49.264-5-2l-1 1q-.476-2.701-2-1-2.157-3.447-2.5-6.5a43 43 0 0 1 5-1.5" clip-rule="evenodd"/><path fill="#f9556a" fill-rule="evenodd" d="M554.012 212.004q1.941 1.185 3.5 3a13.9 13.9 0 0 1 4-3q6.497 3.501 9.5 12 4.062 1.617 4.5 6 .981-1.794 1.5 0a67 67 0 0 1-2 5.5q3.294 1.834 4.5 5.5 1-2 2 0 4.283 5.304 6 12 2.21-.552 4.5 1.5l-4 1 9 1q-2.35.913-4 2.5a4299 4299 0 0 0-14 6q.129-1.494-1-2.5-3.711-.17-6-3 1.109-3.353 0-6a71.8 71.8 0 0 1-11.5-20.5q-4.238-1.626-.5-3.5-4.326-2.826-6.5-7.5a35 35 0 0 1-4.5 1q-1.808-1.615-2-4 2.435-4.486 7-7" clip-rule="evenodd"/><path fill="#f95d64" fill-rule="evenodd" d="M547.012 219.004q.192 2.385 2 4a35 35 0 0 0 4.5-1q2.174 4.674 6.5 7.5-3.738 1.874.5 3.5a71.8 71.8 0 0 0 11.5 20.5q1.109 2.647 0 6 2.289 2.83 6 3 1.129 1.006 1 2.5a95 95 0 0 1-18 6 128 128 0 0 0-8-2.5 456 456 0 0 1 3-4 237 237 0 0 1-8-14.5 62 62 0 0 0 1-5.5 65 65 0 0 1-4-10q-1.255-2.38-4-2.5-2.452.82-5 1 4.056-8.102 11-14" clip-rule="evenodd"/><path fill="#fa645d" fill-rule="evenodd" d="M561.012 271.004q-21.008.273-27.5-20-1.71-9.614 2.5-18a20.2 20.2 0 0 0 5-1q2.745.12 4 2.5a65 65 0 0 0 4 10 62 62 0 0 1-1 5.5 237 237 0 0 0 8 14.5 456 456 0 0 0-3 4 128 128 0 0 1 8 2.5" clip-rule="evenodd"/><path fill="#b11a8a" fill-rule="evenodd" d="M726.012 205.004a354 354 0 0 1 39 22c-.44-.065-.77.101-1 .5q5.505 2.888 0 5c.13 1.974.29 4.141.5 6.5a104 104 0 0 1 9 21 287 287 0 0 0 7.5 32.5v12a7.25 7.25 0 0 1 2 2.5c-2.35 4.442-4.02 8.775-5 13a213 213 0 0 1-24-14 33.2 33.2 0 0 0 12 3.5c-2.98-3.332-6.65-5.332-11-6a38 38 0 0 0 4.5-4.5q2.115-5.603 1.5-11-1.05-4.17-3-8c.33-.667.67-1.333 1-2-.2-5.634-1.53-11.134-4-16.5q.78-3.721 0-7a766 766 0 0 0-6-18.5h-3c.24-1.967-.09-3.801-1-5.5a15.9 15.9 0 0 1-4.5-2.5c-.77.145-1.44.478-2 1q-.915-2.972-3-1a25.8 25.8 0 0 1-2-8q-3.54-3.543-4.5-8.5c.41-.945 1.07-1.612 2-2a18.4 18.4 0 0 0-6-4c.23-.399.56-.565 1-.5" clip-rule="evenodd"/><path fill="#a41989" fill-rule="evenodd" d="m765.012 227.004 26 15c.08 1.25.74 2.083 2 2.5q-2.16.565-3 2.5c-2.13 1.203-3.47 3.037-4 5.5 1.79 6.65 4.13 13.15 7 19.5-.33.667-.67 1.333-1 2a385 385 0 0 0 7.5 26c.23 8.263.07 16.429-.5 24.5l3 2.5c-1.68.65-3.02 1.65-4 3a140 140 0 0 1-20-10c.98-4.225 2.65-8.558 5-13a7.25 7.25 0 0 0-2-2.5v-12a287 287 0 0 1-7.5-32.5 104 104 0 0 0-9-21c-.21-2.359-.37-4.526-.5-6.5q5.505-2.112 0-5c.23-.399.56-.565 1-.5" clip-rule="evenodd"/><path fill="#25254b" fill-rule="evenodd" d="M499.012 247.004a687 687 0 0 1 23 44q-3.704 4.046-4.5-2l-1 4q-1.255-9.505-2 1-1.676-.247-3.5-1-5.612 1.598-9.5 6-1.036-3.587-3 0-2.86.119-6-1a52 52 0 0 0-5.5 8q-2.195.198-4.5 1a3.94 3.94 0 0 1-2-1q-2.654-11.56 7-18 7.21-9.122-3-15-3.942 1.996-8.5 2.5a14.5 14.5 0 0 1-4.5 4.5q-5.305-4.152-12-6-1.05 2.298-3.5 3a9.1 9.1 0 0 0-5-1 44.4 44.4 0 0 1-1.5-18 9.5 9.5 0 0 1 1.5-2.5 23.16 23.16 0 0 0 8.5-5.5q1.953-5.661 6.5-9.5 8.846-1.025 17 2.5a15 15 0 0 0 3.5-3q4.916 4.87 5 11 1.112-1.712 2.5 0 1.393 1.783 1 4h3a12 12 0 0 0-1-6q.519-1.794 1.5 0a2.43 2.43 0 0 0 .5-2" clip-rule="evenodd"/><path fill="#26264c" fill-rule="evenodd" d="M353.012 286.004q-41.154-20.551-86-29 1.663-1.185 4-1.5-7.171-1.049-.5-1.5 9.615 1.974 18.5 1.5.643-3.138 4-6a42.5 42.5 0 0 0 11-5.5q-.586 1.827 2 2.5l4.5.5q2.971-.194 5-2 .75 1.75 2.5 2.5l-1 1q4.137 3.603-1 6 4.618 1.033 8.5 1.5 2.911-5.623 4-12l1 2q.477-2.342 2.5-3.5l7.5-1.5a299 299 0 0 1 10 10q.627 3.432-2 6-3.181 11.07 7.5 7a28 28 0 0 0 5 1.5q3.846 3.414-1 6-6.118 1.46-13 3.5 3.442.954 5 4 1.783 1.393 4 1 .371 3.537-2 6" clip-rule="evenodd"/><path fill="#9b1a88" fill-rule="evenodd" d="M820.012 319.004c.76 2.877 1.1 5.71 1 8.5-.67.333-1.33.667-2 1 .52 2.026.85 4.026 1 6-.81.308-1.47.808-2 1.5 1.11.765 1.78 1.765 2 3-7.73-2.238-15.06-5.238-22-9 .98-1.35 2.32-2.35 4-3l-3-2.5c.57-8.071.73-16.237.5-24.5a385 385 0 0 1-7.5-26c.33-.667.67-1.333 1-2-2.87-6.35-5.21-12.85-7-19.5.53-2.463 1.87-4.297 4-5.5 2.48.776 4.81.776 7 0 .15 2.004-.52 4.004-2 6a244 244 0 0 0 12.5 34q.345 8.806 1.5 17.5c-.32 4.35-.65 8.683-1 13 .67 2 1.33 4 2 6-.46.414-.79.914-1 1.5q1.5 2 3 0c1.29-4.98 2.46-4.646 3.5 1 .72-1.612.55-3.112-.5-4.5 1.12-1.892 2.78-2.725 5-2.5" clip-rule="evenodd"/><path fill="#941989" fill-rule="evenodd" d="M791.012 242.004a504 504 0 0 0 38 19q1.815 3.87-3 7.5c.73 4.808 1.57 9.641 2.5 14.5q.84-3.143 1.5-.5c-.24.902-.58 1.735-1 2.5q-.99 4.93-1.5 10c-.13-3.279-.8-6.612-2-10-.33-.333-.67-.667-1-1-1.36 2.155-1.52 4.322-.5 6.5-1.62 3.312-1.95 3.312-1 0a7 7 0 0 1-2.5-3.5c-1.47 4.785-1.3 9.618.5 14.5a79.7 79.7 0 0 0-1 17.5c-2.22-.225-3.88.608-5 2.5 1.05 1.388 1.22 2.888.5 4.5-1.04-5.646-2.21-5.98-3.5-1q-1.5 2-3 0c.21-.586.54-1.086 1-1.5-.67-2-1.33-4-2-6 .35-4.317.68-8.65 1-13a189 189 0 0 1-1.5-17.5 244 244 0 0 1-12.5-34c1.48-1.996 2.15-3.996 2-6-2.19.776-4.52.776-7 0q.84-1.935 3-2.5c-1.26-.417-1.92-1.25-2-2.5" clip-rule="evenodd"/><path fill="#3d1f6a" fill-rule="evenodd" d="M961.012 258.004q5.715-1.718 12-.5c3.18.754 5.85 2.254 8 4.5q-2.46 3.411-4.5 0c-.4 3.196-1.56 6.03-3.5 8.5.33.333.67.667 1 1q-2.61 1.773-3 5c-.5 4.725.17 9.391 2 14 .11 3.266-.23 6.599-1 10q.945 1.125 1.5 2.5a7.2 7.2 0 0 1 2.5-2q1.8.519 0 1.5a8.4 8.4 0 0 0 4 .5q-12.795 14.804-30 24c-3.12-.6-3.46-1.767-1-3.5-.33-.333-.67-.667-1-1 4.08-.349 7.42-2.016 10-5-.91-1.699-1.24-3.533-1-5.5 2.76-.476 4.43-2.143 5-5a1447 1447 0 0 0-2-19c.33-.667.67-1.333 1-2a32.6 32.6 0 0 1-6-7.5c.57-2.611 1.4-5.111 2.5-7.5.63 2.491 1.46 2.491 2.5 0a43 43 0 0 0 1.5-9c1.07.78 2.24.613 3.5-.5-4.01-1.803-3.68-2.803 1-3a12.9 12.9 0 0 0-5-.5" clip-rule="evenodd"/><path fill="#342063" fill-rule="evenodd" d="M981.012 262.004c6.15 4.76 8.82 11.093 8 19q.42 13.143-9 22a8.4 8.4 0 0 1-4-.5q1.8-.981 0-1.5a7.2 7.2 0 0 0-2.5 2 9.3 9.3 0 0 0-1.5-2.5c.77-3.401 1.11-6.734 1-10-1.83-4.609-2.5-9.275-2-14q.39-3.227 3-5c-.33-.333-.67-.667-1-1 1.94-2.47 3.1-5.304 3.5-8.5q2.04 3.411 4.5 0" clip-rule="evenodd"/><path fill="#491e70" fill-rule="evenodd" d="M961.012 258.004c1.7-.16 3.37.006 5 .5-4.68.197-5.01 1.197-1 3-1.26 1.113-2.43 1.28-3.5.5a43 43 0 0 1-1.5 9c-1.04 2.491-1.87 2.491-2.5 0a36.5 36.5 0 0 0-2.5 7.5q2.46 4.215 6 7.5c-.33.667-.67 1.333-1 2 .71 6.312 1.37 12.645 2 19-.57 2.857-2.24 4.524-5 5-.24 1.967.09 3.801 1 5.5-2.58 2.984-5.92 4.651-10 5 .33.333.67.667 1 1-2.46 1.733-2.12 2.9 1 3.5a157 157 0 0 1-18 9c.09-.996-.25-1.829-1-2.5 1.67-1.333 3.33-2.667 5-4-.33-.333-.67-.667-1-1q3.3-1.833 4.5-5.5c.86-12 1.19-23.666 1-35a8.17 8.17 0 0 1 2.5-4q-.525-1.794-1.5 0c-.67-2-1.33-4-2-6-1.36.758-2.53.258-3.5-1.5l-6-1c1.92-.36 3.59-1.194 5-2.5a6.8 6.8 0 0 1-1-4q12.9-6.693 27-11" clip-rule="evenodd"/><path fill="#841a84" fill-rule="evenodd" d="M829.012 261.004c7.77 2.699 15.43 5.366 23 8-.51.841.16 1.341 2 1.5-2.45.29-4.79.956-7 2 .67.333 1.33.667 2 1a14.8 14.8 0 0 0-3 3.5q.6 5.102 3 10.5a800 800 0 0 0 0 32.5 273 273 0 0 0-5 20.5c.67.333 1.33.667 2 1-5.03.404-5.7 1.571-2 3.5q-4.65-.383-9-2-1.14-1.152-3-1.5c2.02-.401 3.35-1.568 4-3.5a56.3 56.3 0 0 1 0-9 40.7 40.7 0 0 0 4-12.5c-3.29-8.038-3.63-16.204-1-24.5a244 244 0 0 0-3.5-19c-1.34-1.402-2.18-1.069-2.5 1a39.5 39.5 0 0 0-1 11h-3c.42-.765.76-1.598 1-2.5q-.66-2.643-1.5.5c-.93-4.859-1.77-9.692-2.5-14.5q4.815-3.63 3-7.5" clip-rule="evenodd"/><path fill="#7c1982" fill-rule="evenodd" d="M852.012 269.004q9.3 1.456 18 4c-.51.841.16 1.341 2 1.5a18.4 18.4 0 0 1-6 .5c-1.88-.107-2.21.393-1 1.5a23.4 23.4 0 0 0-3 3.5c-2.06 14.353-2.39 28.853-1 43.5-1.77 3.932-2.1 7.932-1 12-.67.333-1.33.667-2 1a20.7 20.7 0 0 0 2.5 4.5 37.7 37.7 0 0 1 10-3q-.885 2.775-1.5 6-7.755.65-15 2c-3.38.04-6.71-.293-10-1-3.7-1.929-3.03-3.096 2-3.5-.67-.333-1.33-.667-2-1 1.4-6.893 3.07-13.726 5-20.5a800 800 0 0 1 0-32.5q-2.4-5.398-3-10.5a14.8 14.8 0 0 1 3-3.5c-.67-.333-1.33-.667-2-1a22.5 22.5 0 0 1 7-2c-1.84-.159-2.51-.659-2-1.5" clip-rule="evenodd"/><path fill="#6b1e7f" fill-rule="evenodd" d="M870.012 273.004a544 544 0 0 0 37 1q-7.215 1.481-15 1a8.4 8.4 0 0 0-4 .5q3.195.814 6 2.5c-1.79 5.935-2.13 11.935-1 18 1.78-.218 3.61-.218 5.5 0 1.6 3.713 3.77 6.379 6.5 8a11 11 0 0 1-3 4.5c1.13 4.079 1.3 8.245.5 12.5-1.86-.581-3.53.086-5 2a3.95 3.95 0 0 1-2-1c-2.96 6.564-3.13 13.064-.5 19.5-2.38.974-2.04 1.641 1 2q-3.105 1.03-6-.5c-2.35 1.729-5.02 2.396-8 2q.84-12.538 3-25.5c-.33-.333-.67-.667-1-1a4.94 4.94 0 0 1 3-.5q-5.295-17.103-3-35l-3-2q3.66-2.69-1.5-3c-1.37.206-2.7.54-4 1-.95-.405-1.61-1.072-2-2-.67 1.333-1.33 1.333-2 0q-1.635 3.648-1.5-1c-1.6.268-2.93-.066-4-1a18.4 18.4 0 0 0 6-.5c-1.84-.159-2.51-.659-2-1.5" clip-rule="evenodd"/><path fill="#62197d" fill-rule="evenodd" d="M892.012 275.004q7.23 1.239 15 1.5c-1.28 2.202-1.95 4.702-2 7.5.89 2.784 2.06 5.45 3.5 8l3-1c.65 1.735.48 3.402-.5 5q3.015 3.96 0 8.5 1.665 2.824 0 5.5c-.33-.333-.67-.667-1-1-.17-1.617-.5-3.284-1-5a17.85 17.85 0 0 0-2 8q-1.77-.329-3 1c.39 3.718 2.05 6.718 5 9 .83-1 1.67-2 2.5-3q1.905 3.61 1.5 7-2.955 1.932 0 5-.705 2.45-3 3.5c.33.333.67.667 1 1l-7 1c-.84 1.011-1.17 2.178-1 3.5h-4c.17 1.322-.16 2.489-1 3.5q1.425.724 3 .5-8.625 2.474-18 2c-1.72.039-2.06-.294-1-1 2.98.396 5.65-.271 8-2q2.895 1.53 6 .5c-3.04-.359-3.38-1.026-1-2-2.63-6.436-2.46-12.936.5-19.5.56.522 1.23.855 2 1 1.47-1.914 3.14-2.581 5-2 .8-4.255.63-8.421-.5-12.5a11 11 0 0 0 3-4.5c-2.73-1.621-4.9-4.287-6.5-8a23.2 23.2 0 0 0-5.5 0c-1.13-6.065-.79-12.065 1-18a22.3 22.3 0 0 0-6-2.5 8.4 8.4 0 0 1 4-.5" clip-rule="evenodd"/><path fill="#72197f" fill-rule="evenodd" d="M866.012 275.004c1.07.934 2.4 1.268 4 1q-.135 4.648 1.5 1c.67 1.333 1.33 1.333 2 0 .39.928 1.05 1.595 2 2 1.3-.46 2.63-.794 4-1q5.16.31 1.5 3l3 2q-2.295 17.897 3 35a4.94 4.94 0 0 0-3 .5c.33.333.67.667 1 1q-2.16 12.962-3 25.5c-1.06.706-.72 1.039 1 1a105.7 105.7 0 0 1-29 0q7.245-1.35 15-2 .615-3.225 1.5-6a37.7 37.7 0 0 0-10 3 20.7 20.7 0 0 1-2.5-4.5c.67-.333 1.33-.667 2-1-1.1-4.068-.77-8.068 1-12-1.39-14.647-1.06-29.147 1-43.5q1.32-1.89 3-3.5c-1.21-1.107-.88-1.607 1-1.5" clip-rule="evenodd"/><path fill="#8d1983" fill-rule="evenodd" d="M835.012 343.004a49.9 49.9 0 0 1-15-4c-.22-1.235-.89-2.235-2-3a4.47 4.47 0 0 1 2-1.5 34.7 34.7 0 0 0-1-6c.67-.333 1.33-.667 2-1 .1-2.79-.24-5.623-1-8.5a79.7 79.7 0 0 1 1-17.5c-1.8-4.882-1.97-9.715-.5-14.5a7 7 0 0 0 2.5 3.5c-.95 3.312-.62 3.312 1 0-1.02-2.178-.86-4.345.5-6.5.33.333.67.667 1 1 1.2 3.388 1.87 6.721 2 10q.51-5.07 1.5-10h3c-.18-3.715.15-7.382 1-11 .32-2.069 1.16-2.402 2.5-1a244 244 0 0 1 3.5 19c-2.63 8.296-2.29 16.462 1 24.5a40.7 40.7 0 0 1-4 12.5 56.3 56.3 0 0 0 0 9c-.65 1.932-1.98 3.099-4 3.5q1.86.348 3 1.5" clip-rule="evenodd"/><path fill="#faa11f" fill-rule="evenodd" d="M198.012 291.004h12q.255 1.983-1 3.5 3.339 1.841 4.5 5.5 1.619-2.84 4-1 .684 1.866-1.5 2.5a40 40 0 0 0 4 4.5l-2 1q-.112 4.224 0 8.5-.666 2.643-1.5-.5a62.7 62.7 0 0 1-1.5 11 15.7 15.7 0 0 1-4 2.5l1 1q-2.42 3.342-2 7.5a12.9 12.9 0 0 0-5 .5q1.855.348 3 1.5a51.6 51.6 0 0 1-7-1l-6-2a247 247 0 0 0-7-2q1.586-.609 4 0 .681-3.96 3.5-7 1.077 1.426 2.5.5a45 45 0 0 1-2-7.5q5.357-6.891-1-12a9.1 9.1 0 0 0 1-5h-4q.494-7.52-6-11a55 55 0 0 1 12-1" clip-rule="evenodd"/><path fill="#faaf16" fill-rule="evenodd" d="M238.012 291.004a992 992 0 0 1 23 2.5q1.856.348 3 1.5-.764 1.262 2 1.5-8.101 4.137-13 12-8.46 4.092-12.5 12.5a67 67 0 0 0-1.5-5.5q2.616-5.435-2-9l1-1q-2.686-.623-4-3 2.042-2.377 2-5.5-2.435-.21-3.5 2a15.7 15.7 0 0 0-2.5-4 4.46 4.46 0 0 1 2-1.5l-4-1q5.288-.268 10-1.5" clip-rule="evenodd"/><path fill="#fa9b26" fill-rule="evenodd" d="M186.012 292.004q6.494 3.48 6 11h4a9.1 9.1 0 0 1-1 5q6.357 5.109 1 12a45 45 0 0 0 2 7.5q-1.423.926-2.5-.5-2.819 3.04-3.5 7-2.414-.609-4 0 3.703 1.002 7 2a443 443 0 0 0-33-3q.571-2.146 3-2.5l-1-1a24.4 24.4 0 0 1 10-1.5 29.3 29.3 0 0 1 2-6.5q-.383-1.989-2-3a1290 1290 0 0 0 4-19q.091-2.566-2-4l1-1a4.93 4.93 0 0 0-3-.5q5.724-1.473 12-2" clip-rule="evenodd"/><path fill="#fa962d" fill-rule="evenodd" d="M174.012 294.004a4.93 4.93 0 0 1 3 .5l-1 1q2.091 1.434 2 4a1290 1290 0 0 1-4 19q1.617 1.011 2 3a29.3 29.3 0 0 0-2 6.5 24.4 24.4 0 0 0-10 1.5l1 1q-2.429.354-3 2.5a228 228 0 0 0-29 1h-5q1.663-1.185 4-1.5 1.981-5.5 8-5l-2-1q3.472-1.664 4.5-5.5 1.461 3.566 2-1 .834 3.143 1.5.5a12.2 12.2 0 0 1-3-4q.643-5.909 1.5-12.5 4.041-.76 4.5-3.5a2.43 2.43 0 0 0-2-.5q12.909-4.886 27-6" clip-rule="evenodd"/><path fill="#faa816" fill-rule="evenodd" d="M198.012 291.004q19.78-1.9 40 0-4.712 1.232-10 1.5l4 1a4.46 4.46 0 0 0-2 1.5 15.7 15.7 0 0 1 2.5 4q1.065-2.21 3.5-2 .042 3.123-2 5.5 1.314 2.377 4 3l-1 1q4.616 3.565 2 9a67 67 0 0 1 1.5 5.5q4.04-8.408 12.5-12.5 4.899-7.863 13-12-2.764-.238-2-1.5a21.4 21.4 0 0 1 7 1q.571 2.146 3 2.5-4.307.196-7 3.5-3.464 6.214-9.5 10a272 272 0 0 0-6.5 10.5l1 1a45 45 0 0 0-4 8l1 1q-4.831 7.745-2 16.5h-4q-17.52-5.007-35-10-1.145-1.152-3-1.5a12.9 12.9 0 0 1 5-.5q-.42-4.158 2-7.5l-1-1a15.7 15.7 0 0 0 4-2.5 62.7 62.7 0 0 0 1.5-11q.834 3.143 1.5.5-.112-4.276 0-8.5l2-1a40 40 0 0 1-4-4.5q2.184-.634 1.5-2.5-2.381-1.84-4 1-1.161-3.659-4.5-5.5 1.255-1.517 1-3.5z" clip-rule="evenodd"/><path fill="#fa8f32" fill-rule="evenodd" d="M147.012 300.004a2.43 2.43 0 0 1 2 .5q-.459 2.74-4.5 3.5a608 608 0 0 0-1.5 12.5 12.2 12.2 0 0 0 3 4q-.666 2.643-1.5-.5-.539 4.566-2 1-1.028 3.836-4.5 5.5l2 1q-6.019-.5-8 5-2.337.315-4 1.5-8.472.283-4-6.5-1.07-2.014 1-4a18 18 0 0 1-2-3.5 100.5 100.5 0 0 0 10.5-10q-.467-2.152.5-4-1.237-1.329-3-1 7.498-3.663 16-5" clip-rule="evenodd"/><path fill="#fa9b19" fill-rule="evenodd" d="M286.012 300.004a20.7 20.7 0 0 1 5 1q-5.128 2.868-9 7.5l1 1q-5.435 5.737-11 11.5-2.202 3.438-3 6.5 1.526 1.574.5 3.5a47.7 47.7 0 0 1-5.5 7 33.8 33.8 0 0 1-5.5 11q-3.736 1.08-7.5 2-.08-10.386 6-18.5l-1-1a103 103 0 0 0 8-14.5q7.768-9.036 16-15.5a20.1 20.1 0 0 1 6-1.5" clip-rule="evenodd"/><path fill="#311f64" fill-rule="evenodd" d="M681.012 305.004q-1.188 2.2 0 4a99 99 0 0 0 11 7q-2.64 5.139-6.5 1l-.5 1.5a119 119 0 0 0 12.5 19.5q.293 5.685 3.5 10-.848 6.055-4 11-4.529-11.312-15-17.5l1-1a106.2 106.2 0 0 0-17-14.5q-2.736-5.393-2-11a25 25 0 0 0-7-7.5l2-1q-3.549-.66-7-1.5 5.388-3.284 12-3a65 65 0 0 1 17 3" clip-rule="evenodd"/><path fill="#faa116" fill-rule="evenodd" d="M271.012 296.004a243 243 0 0 1 15 4 20.1 20.1 0 0 0-6 1.5q-8.232 6.464-16 15.5a103 103 0 0 1-8 14.5l1 1q-6.08 8.114-6 18.5h-3q-3.08.147-5-2h4q-2.831-8.755 2-16.5l-1-1a45 45 0 0 1 4-8l-1-1a272 272 0 0 1 6.5-10.5q6.036-3.786 9.5-10 2.693-3.304 7-3.5-2.429-.354-3-2.5" clip-rule="evenodd"/><path fill="#561b76" fill-rule="evenodd" d="M934.012 269.004a6.8 6.8 0 0 0 1 4c-1.41 1.306-3.08 2.14-5 2.5l6 1c.97 1.758 2.14 2.258 3.5 1.5.67 2 1.33 4 2 6q.975-1.794 1.5 0a8.17 8.17 0 0 0-2.5 4c.19 11.334-.14 23-1 35q-1.2 3.667-4.5 5.5c.33.333.67.667 1 1-1.67 1.333-3.33 2.667-5 4 .75.671 1.09 1.504 1 2.5a151.3 151.3 0 0 1-31 8 4.94 4.94 0 0 1-3-.5c.84-1.011 1.17-2.178 1-3.5h4c-.17-1.322.16-2.489 1-3.5l7-1c-.33-.333-.67-.667-1-1q2.295-1.05 3-3.5-2.955-3.068 0-5 .405-3.39-1.5-7c-.83 1-1.67 2-2.5 3-2.95-2.282-4.61-5.282-5-9q1.23-1.329 3-1c.04-2.821.71-5.488 2-8 .5 1.716.83 3.383 1 5 .33.333.67.667 1 1q1.665-2.676 0-5.5 3.015-4.54 0-8.5c.98-1.598 1.15-3.265.5-5l-3 1a42.6 42.6 0 0 1-3.5-8c.05-2.798.72-5.298 2-7.5q-7.77-.261-15-1.5 7.785.481 15-1 13.815-1.051 27-5" clip-rule="evenodd"/><path fill="#fa8834" fill-rule="evenodd" d="M131.012 305.004q1.763-.329 3 1-.967 1.848-.5 4a100.5 100.5 0 0 1-10.5 10 18 18 0 0 0 2 3.5q-2.07 1.986-1 4-4.472 6.783 4 6.5h5q-1.602 1.401-4 1l-10 1q-9.538 1.26-19 3a2.43 2.43 0 0 1-2-.5q11.495-3.414 0-4.5 2.5-5.758 1.5-12l-1 1q-1.574-2.41-4.5-2 17.414-10.312 37-16" clip-rule="evenodd"/><path fill="#fa8e20" fill-rule="evenodd" d="M299.012 304.004q4.928.642 9 3a53.3 53.3 0 0 0-8 4.5l1 1q-3.25 2.25-5.5 5.5a262 262 0 0 1-15.5 30.5l1 1q-4.914 4.182-6 9.5 6.114 4.471-1 4-3.709-2.74-8-4 3.368-.062 2-2.5 3.411-3.517 3.5-8.5a135 135 0 0 1 8-14q2.127-8.114 8-14a33.9 33.9 0 0 1 6.5-12.5l6-2-2-1q.343-.598 1-.5" clip-rule="evenodd"/><path fill="#381f6a" fill-rule="evenodd" d="M652.012 305.004q3.451.84 7 1.5l-2 1a25 25 0 0 1 7 7.5q-.736 5.607 2 11a106.2 106.2 0 0 1 17 14.5l-1 1q10.471 6.188 15 17.5-3.36 9.224-9 17a41 41 0 0 1-4.5-6l-1 4q.056-5.489-3.5-9.5l1-1a127 127 0 0 0-5-8.5q2.344-4.328-1-8a35.8 35.8 0 0 0-7.5-7l-1 2-2.5-3q-1.824.753-3.5 1l-1-8a64.2 64.2 0 0 1-9-10q-1.548-6.974-5-11-2.176 2.946-5.5 4 4.782-7.288 13-10" clip-rule="evenodd"/><path fill="#fa8325" fill-rule="evenodd" d="M310.012 308.004q4.563.35 8 3-3.312.784-4.5 4-1.156 7.196-3 15-3.94 9.404-7 18-6.917 8.353-11.5 18-4.283.438-8 0 .158-4.216 3-8.5l-1-1 4-6a3.65 3.65 0 0 1-1-1.5q5.922-10.43 13.5-18a26.7 26.7 0 0 1 1.5-6.5 3.65 3.65 0 0 1-1-1.5 344 344 0 0 1 4.5-10q2.878-2.372 2.5-5" clip-rule="evenodd"/><path fill="#fa951c" fill-rule="evenodd" d="M291.012 301.004q4.346.944 8 3-.657-.098-1 .5l2 1-6 2a33.9 33.9 0 0 0-6.5 12.5q-5.873 5.886-8 14a135 135 0 0 0-8 14q-.089 4.983-3.5 8.5 1.368 2.438-2 2.5a8435 8435 0 0 0-18-8h3q3.764-.92 7.5-2a33.8 33.8 0 0 0 5.5-11 47.7 47.7 0 0 0 5.5-7q1.026-1.926-.5-3.5.798-3.062 3-6.5 5.565-5.763 11-11.5l-1-1q3.872-4.632 9-7.5" clip-rule="evenodd"/><path fill="#fa8821" fill-rule="evenodd" d="M308.012 307.004q1.488-.258 2 1 .378 2.628-2.5 5a344 344 0 0 0-4.5 10 3.65 3.65 0 0 0 1 1.5 26.7 26.7 0 0 0-1.5 6.5q-7.578 7.57-13.5 18a3.65 3.65 0 0 0 1 1.5l-4 6 1 1q-2.842 4.284-3 8.5h-4q-3.478-.738-6-3 7.114.471 1-4 1.086-5.318 6-9.5l-1-1a262 262 0 0 0 15.5-30.5q2.25-3.25 5.5-5.5l-1-1a53.3 53.3 0 0 1 8-4.5" clip-rule="evenodd"/><path fill="#fa7d27" fill-rule="evenodd" d="M318.012 311.004q4.32.66 8 3v2q-.925.166-1.5 1 .276 9.689-6.5 16.5l1 1q-2.023 1.158-2.5 3.5l-1-1a11.3 11.3 0 0 1-1.5 3.5 34.5 34.5 0 0 0 1 6q-2.519 2.739-3.5 6.5l-1-1q-3.972 6.26-6.5 14.5l1 1a25.7 25.7 0 0 0-3.5 7.5q-2.121 1.37-4.5 0a131 131 0 0 1-17-9h4q3.717.438 8 0 4.583-9.647 11.5-18 3.06-8.596 7-18 1.844-7.804 3-15 1.188-3.216 4.5-4" clip-rule="evenodd"/><path fill="#fa752a" fill-rule="evenodd" d="M326.012 316.004q1.663 1.185 4 1.5l-1 3q2.704.955 4 3.5-5.257 7.522-10.5 15a42.7 42.7 0 0 1-3.5 12.5q-.15 3.533-3.5 6.5-4.1 8.671-5.5 18-3.618-.384-5 3-2.012-2.258-5-2-2.29.11-3-2 2.379 1.37 4.5 0a25.7 25.7 0 0 1 3.5-7.5l-1-1q2.528-8.24 6.5-14.5l1 1q.981-3.761 3.5-6.5a34.5 34.5 0 0 1-1-6 11.3 11.3 0 0 0 1.5-3.5l1 1q.477-2.342 2.5-3.5l-1-1q6.776-6.811 6.5-16.5.575-.834 1.5-1" clip-rule="evenodd"/><path fill="#2d205d" fill-rule="evenodd" d="M681.012 305.004q26.165 13.746 20 43-3.207-4.315-3.5-10a119 119 0 0 1-12.5-19.5l.5-1.5q3.86 4.139 6.5-1a99 99 0 0 1-11-7q-1.188-1.8 0-4" clip-rule="evenodd"/><path fill="#431f70" fill-rule="evenodd" d="M688.012 376.004a122 122 0 0 1-11 18q.21-2.436-2-3.5a3.65 3.65 0 0 0 1-1.5q-4.42-3.423-5-9a13 13 0 0 1-4.5-4q-.803 2.656-2.5 1-1.889-5.116-1.5-10l-1 1a35.7 35.7 0 0 1-3-9l-1 1q-1.55-7.6-7-13l-5 1-1.5-1.5q2.505-5.177-3-7.5-1.96-2.118-2.5-5l-1 1a48 48 0 0 0-2.5-5q-1.668 3.852-4 7 1.277-12.187 8-22 3.324-1.054 5.5-4 3.452 4.026 5 11a64.2 64.2 0 0 0 9 10l1 8q1.676-.247 3.5-1l2.5 3 1-2a35.8 35.8 0 0 1 7.5 7q3.344 3.672 1 8a127 127 0 0 1 5 8.5l-1 1q3.556 4.011 3.5 9.5l1-4a41 41 0 0 0 4.5 6" clip-rule="evenodd"/><path fill="#fa813d" fill-rule="evenodd" d="M94.012 321.004q2.926-.41 4.5 2l1-1q1 6.242-1.5 12 11.495 1.086 0 4.5a2.43 2.43 0 0 0 2 .5 141 141 0 0 0-11 4 157 157 0 0 0-19 6 2.43 2.43 0 0 1-2-.5q3.199-1.377 2-4 1.242-6.51 6-11a4.93 4.93 0 0 0-3-.5 108.5 108.5 0 0 1 21-12" clip-rule="evenodd"/><path fill="#fa6e2d" fill-rule="evenodd" d="M326.012 314.004a169 169 0 0 1 22 11h-3q-1.652 5.305-5 10 1.53 2.898.5 6-1 2-2 0-2.076 4.898-4 11-2.482.454-4 4-1.368 5.622-4.5 10a6.85 6.85 0 0 0-4 1 47.6 47.6 0 0 1-4.5 7q-.15 5.105-2.5 9.5l2 1q-2.545.577-5-.5-6.546-2.766-12-7 2.988-.258 5 2 1.382-3.384 5-3 1.4-9.329 5.5-18 3.35-2.967 3.5-6.5a42.7 42.7 0 0 0 3.5-12.5q5.243-7.478 10.5-15-1.296-2.545-4-3.5l1-3q-2.337-.315-4-1.5z" clip-rule="evenodd"/><path fill="#fa6533" fill-rule="evenodd" d="M348.012 325.004q2.48.24 4 2-1.314-.197-2 1 1.239 1.427.5 3a42.3 42.3 0 0 0-6.5 8.5q-1.104 5.47-4 11.5a3.65 3.65 0 0 0 1 1.5l-4 5q.104 7.111-5.5 12.5l-1.5 9a185 185 0 0 0-2 13.5q3.648 1.63-1 1.5a46.8 46.8 0 0 0-12-7 10.2 10.2 0 0 1-3-3q2.455 1.077 5 .5l-2-1q2.35-4.395 2.5-9.5a47.6 47.6 0 0 0 4.5-7 6.85 6.85 0 0 1 4-1q3.132-4.378 4.5-10 1.518-3.546 4-4 1.924-6.102 4-11 1 2 2 0 1.03-3.102-.5-6 3.348-4.695 5-10z" clip-rule="evenodd"/><path fill="#fa5b32" fill-rule="evenodd" d="M352.012 327.004q1.206 6.927 5 13a30.1 30.1 0 0 1-5 6.5l2 5q-2.7 5.686-7.5 9.5-.498 5.77-3.5 10.5l1 1q-2.487 2.494-6 2.5.03 2.464-2 4a3.65 3.65 0 0 0 1 1.5q-2.625 1.978-6 1.5.356-1.936-1-3l1.5-9q5.604-5.389 5.5-12.5l4-5a3.65 3.65 0 0 1-1-1.5q2.896-6.03 4-11.5a42.3 42.3 0 0 1 6.5-8.5q.739-1.573-.5-3 .686-1.197 2-1" clip-rule="evenodd"/><path fill="#fa5638" fill-rule="evenodd" d="M352.012 327.004a35.7 35.7 0 0 1 7 4q-.166.925-1 1.5a45 45 0 0 1 5 5l-1 1q4.079 19.615-7.5 37.5a71.5 71.5 0 0 1-3 11q-1.138 3.202-4.5 4a20.76 20.76 0 0 0-4 9.5q-.504 1.545-2 1.5-7.012-4.005-14-8 4.648.13 1-1.5a185 185 0 0 1 2-13.5q1.356 1.064 1 3 3.375.478 6-1.5a3.65 3.65 0 0 1-1-1.5q2.03-1.536 2-4 3.513-.006 6-2.5l-1-1q3.002-4.73 3.5-10.5 4.8-3.814 7.5-9.5l-2-5a30.1 30.1 0 0 0 5-6.5q-3.794-6.073-5-13" clip-rule="evenodd"/><path fill="#4b1f76" fill-rule="evenodd" d="M677.012 394.004q-3.904 8.33-10 15a9.1 9.1 0 0 0-1-5 11.1 11.1 0 0 0 2-3.5 66 66 0 0 0-4-6.5q-.924-2.916 0-6.5a9.5 9.5 0 0 1-1.5-2.5q-2.76 2-1.5-.5a36 36 0 0 1-5.5-8.5q-6.149-2.627-8.5-9l-3-2q-2.412-5.315-7-9a107 107 0 0 0-6.5-13q-1.168 3.895-1.5 0 .143-3.429 2-6 2.332-3.148 4-7a48 48 0 0 1 2.5 5l1-1q.54 2.882 2.5 5 5.505 2.323 3 7.5l1.5 1.5 5-1q5.45 5.4 7 13l1-1a35.7 35.7 0 0 0 3 9l1-1q-.389 4.884 1.5 10 1.697 1.656 2.5-1a13 13 0 0 0 4.5 4q.58 5.577 5 9a3.65 3.65 0 0 1-1 1.5q2.21 1.064 2 3.5" clip-rule="evenodd"/><path fill="#f9524a" fill-rule="evenodd" d="M119.012 336.004a112 112 0 0 1-5 2q3.292 1.904 6.5 0 .831 6.52 6.5 11.5-2 2.76.5 1.5a53.2 53.2 0 0 1 11 6q2.906-2.04 5 1 1.077-1.426 2.5-.5 8.593 6.889 19 11 2.579 4.079 7 6l-4 1q1.855.348 3 1.5l-12 2q.116-1.875 2-2.5a33.6 33.6 0 0 0-13.5.5q-2.74-.766-.5-2.5-5.611-1.435-12-3.5-1.969 1.44-4-.5l1-1q-8.681-.934-13-8.5a19.2 19.2 0 0 1-7.5-5q-1.524 1.701-2-1h-8a291 291 0 0 0-13.5-9q-2.722.219-6 .5 3.854-1.347 7-3.5a141 141 0 0 1 11-4 381 381 0 0 1 19-3" clip-rule="evenodd"/><path fill="#f97040" fill-rule="evenodd" d="M73.012 333.004a4.93 4.93 0 0 1 3 .5q-4.758 4.49-6 11 1.199 2.623-2 4a2.43 2.43 0 0 0 2 .5 285 285 0 0 0-28 15 82 82 0 0 1-3-5 215.2 215.2 0 0 1 34-26" clip-rule="evenodd"/><path fill="#f95663" fill-rule="evenodd" d="M201.012 338.004q3.459.74 7 1 17.48 4.993 35 10 1.92 2.147 5 2 8.882 3.935 18 8 4.291 1.26 8 4 2.522 2.262 6 3a131 131 0 0 0 17 9q.71 2.11 3 2 5.454 4.234 12 7a10.2 10.2 0 0 0 3 3q-2.268 2.726-6 3v3a6.85 6.85 0 0 0 4-1l1 1a6.8 6.8 0 0 1-3 1.5q10.095 5.592 17.5 14.5a14.4 14.4 0 0 0 2.5 5.5l-3 1q1.75.75 2.5 2.5l1-2a31.6 31.6 0 0 0 6 5q1 1 0 2a26.4 26.4 0 0 0-4.5 4 362 362 0 0 0-37-24q2.41-1.289 5-.5-4.373-6.442-14-7-2.437-1.28-1-3a19.9 19.9 0 0 1-4-3.5q-1.783-1.393-4-1a4.93 4.93 0 0 0-.5-3l-1 1q-3.009-4.757-7.5-8-13.919-4.368-25-13.5a108 108 0 0 1-13-5l1-1q-6.237-4.92-14-7-2.07-1.986-1-4a116.4 116.4 0 0 1-16-5l1-1a57.6 57.6 0 0 0-8-3 25 25 0 0 1 7-.5" clip-rule="evenodd"/><path fill="#fa5651" fill-rule="evenodd" d="M129.012 335.004q-.166.925-1 1.5 5.073.264 10 1.5 2.48 2.432 6 3.5 2 1 0 2 4.887 3.858 11 5.5a23.7 23.7 0 0 0 3 3.5q10.946 3.213 17.5 12.5.724 1.422.5 3 24.445 4.188 50 7 7.832 1.687 0 2.5l4 1a2.43 2.43 0 0 1-2 .5 246.7 246.7 0 0 0-57-2q-1.145-1.152-3-1.5l4-1q-4.421-1.921-7-6-10.407-4.111-19-11-1.423-.926-2.5.5-2.094-3.04-5-1a53.2 53.2 0 0 0-11-6q-2.5 1.26-.5-1.5-5.669-4.98-6.5-11.5-3.208 1.904-6.5 0a112 112 0 0 0 5-2z" clip-rule="evenodd"/><path fill="#521e76" fill-rule="evenodd" d="M629.012 343.004q.332 3.895 1.5 0a107 107 0 0 1 6.5 13q4.588 3.685 7 9l3 2q2.351 6.373 8.5 9a36 36 0 0 0 5.5 8.5q-1.26 2.5 1.5.5.561 1.375 1.5 2.5-.924 3.584 0 6.5a66 66 0 0 1 4 6.5 11.1 11.1 0 0 1-2 3.5 9.1 9.1 0 0 1 1 5 128 128 0 0 1-8 13q1.503-3.915-.5-8a100 100 0 0 1-5.5-2q1.989.443 4-1.5-1.595-1.782-4-1.5a71 71 0 0 0-1.5-9q-1.112-1.712-2.5 0a26.7 26.7 0 0 1-1.5-7q-1.512-.723-3.5-.5a3.65 3.65 0 0 0 1-1.5 14.7 14.7 0 0 0-5-1.5 9.5 9.5 0 0 1-1.5-2.5l-1 1a60 60 0 0 0-.5-6l2-2a28.5 28.5 0 0 1-4.5-9l-1 1q-1.73-3.978-5.5-6-2.178-4.173 1-7.5a9.5 9.5 0 0 1-1.5-2.5l-1 1q-.625-1.884-2.5-2a65 65 0 0 1 5-12" clip-rule="evenodd"/><path fill="#fa4d3e" fill-rule="evenodd" d="m359.012 331.004 14 8q.531 3.061 0 5.5a26.8 26.8 0 0 1 3 6.5q-.532 6.599 0 12.5-.432 3.357-4 5.5l-2.5 9a58.4 58.4 0 0 0-9 19q-2.736 1.461-6.5 3.5 3.587 1.036 0 3 2.334 3.751-2 4.5l-4-1a19 19 0 0 0-7-5q1.496.045 2-1.5a20.76 20.76 0 0 1 4-9.5q3.362-.798 4.5-4a71.5 71.5 0 0 0 3-11q11.579-17.885 7.5-37.5l1-1a45 45 0 0 0-5-5q.834-.575 1-1.5" clip-rule="evenodd"/><path fill="#f44644" fill-rule="evenodd" d="M373.012 339.004a129 129 0 0 1 16 10q-2.289.907-3 3.5 4.254 5.429-1 11 .16 4.598 0 9-8.889 14.341-13.5 29.5a42 42 0 0 1-7.5 8.5q.608 1.418 2 2a45 45 0 0 1-7-.5l-4-1a10.2 10.2 0 0 0-3-3q4.334-.749 2-4.5 3.587-1.964 0-3 3.764-2.039 6.5-3.5a58.4 58.4 0 0 1 9-19l2.5-9q3.568-2.143 4-5.5-.532-5.901 0-12.5a26.8 26.8 0 0 0-3-6.5q.531-2.439 0-5.5" clip-rule="evenodd"/><path fill="#f84f40" fill-rule="evenodd" d="M89.012 343.004q-3.146 2.153-7 3.5 3.278-.281 6-.5a291 291 0 0 1 13.5 9h8q.476 2.701 2 1a19.2 19.2 0 0 0 7.5 5q4.319 7.566 13 8.5l-1 1q2.031 1.94 4 .5 6.389 2.065 12 3.5-2.24 1.734.5 2.5a33.6 33.6 0 0 1 13.5-.5q-1.884.625-2 2.5-28.291 5.318-54 18a95 95 0 0 1 0-6q-9.504-3.768-16-11.5a36.2 36.2 0 0 0-7-4 11.3 11.3 0 0 1-1.5-3.5 6.3 6.3 0 0 1-3 1q-8.94-3.518-17.5-2.5l-5-5q3.601-1.207-.5-2.5a42.4 42.4 0 0 1-8.5 1.5q-2.437 1.28-1 3-2.704.955-4 3.5a18 18 0 0 1-3.5-2l-1 2q-1.876-1.61-4 0l-9.5 10.5a58 58 0 0 0-8 2.5 212.3 212.3 0 0 1 24-25 82 82 0 0 0 3 5 285 285 0 0 1 28-15 157 157 0 0 1 19-6" clip-rule="evenodd"/><path fill="#eb3e4b" fill-rule="evenodd" d="M389.012 349.004a61.8 61.8 0 0 1 11 7 56 56 0 0 0-1 4q2.615 3.14 2 6.5-6.081 8.665-9 19a56 56 0 0 0-6 6.5q2.283 2.484-1 3.5.686.621 1 1.5-2.648 3.563-3.5 8a6.55 6.55 0 0 0-3 3l-1-1-3 4q1.457 3.233 1.5 6.5a2.43 2.43 0 0 1-2 .5q-8.444-2.143-16-6 3.554.527 7 .5-1.392-.582-2-2a42 42 0 0 0 7.5-8.5q4.611-15.159 13.5-29.5.16-4.402 0-9 5.254-5.571 1-11 .711-2.593 3-3.5" clip-rule="evenodd"/><path fill="#e23851" fill-rule="evenodd" d="M400.012 356.004q1.815.648 3 2-.657-.098-1 .5 2.562 2.265 5 4.5a536 536 0 0 0-12 35 4.93 4.93 0 0 0 1 2.5 115 115 0 0 1-4 10q-3.232 3.866-8 5.5a6.85 6.85 0 0 0-1 4h-4q-2.48-.24-4-2a2.43 2.43 0 0 0 2-.5q-.043-3.267-1.5-6.5l3-4 1 1a6.55 6.55 0 0 1 3-3q.852-4.437 3.5-8a3.65 3.65 0 0 0-1-1.5q3.283-1.016 1-3.5a56 56 0 0 1 6-6.5q2.919-10.335 9-19 .615-3.36-2-6.5a56 56 0 0 1 1-4" clip-rule="evenodd"/><path fill="#f94c37" fill-rule="evenodd" d="M105.012 397.004a311 311 0 0 0-28 18q-.538-2.977-2.5-2l-2-2q-3.282 1.42-7 0a7.3 7.3 0 0 0-2 3q-2.655-2.877-6.5-1.5a19.9 19.9 0 0 1 4 3.5 34.2 34.2 0 0 0-6.5 3 100 100 0 0 1-14.5-7.5q-2.91-1.114-5.5.5-.684-1.866 1.5-2.5-5.123-1.715-1-5a23.7 23.7 0 0 1-3-3.5l-2 1a51 51 0 0 0-4-5.5q1.857.116 3-.5a29 29 0 0 1-1.5-4q-2.034 5.685-8.5 9a55.6 55.6 0 0 0-9-1.5q-.904-3.107-4-3.5a2842 2842 0 0 1 9-12 58 58 0 0 1 8-2.5l9.5-10.5q2.124-1.61 4 0l1-2a18 18 0 0 0 3.5 2q1.296-2.545 4-3.5-1.437-1.72 1-3a42.4 42.4 0 0 0 8.5-1.5q4.101 1.293.5 2.5l5 5q8.56-1.018 17.5 2.5a6.3 6.3 0 0 0 3-1 11.3 11.3 0 0 0 1.5 3.5 36.2 36.2 0 0 1 7 4q6.496 7.732 16 11.5a95 95 0 0 0 0 6" clip-rule="evenodd"/><path fill="#f9595a" fill-rule="evenodd" d="M162.012 333.005a443 443 0 0 1 33 3l6 2a25 25 0 0 0-7 .5 57.6 57.6 0 0 1 8 3l-1 1a116.4 116.4 0 0 0 16 5q-1.07 2.014 1 3.999 7.763 2.08 14 7l-1 1a108 108 0 0 0 13 5q11.081 9.132 25 13.501 4.491 3.242 7.5 8l1-1q.724 1.422.5 3 2.217-.393 4 1a19.9 19.9 0 0 0 4 3.5q-1.437 1.72 1 3 9.627.558 14 7-2.59-.789-5 .5-32.762-15.918-68-24a2.43 2.43 0 0 0 2-.5l-4-1q7.832-.813 0-2.5-25.555-2.812-50-7a4.93 4.93 0 0 0-.5-3q-6.554-9.287-17.5-12.501a23.7 23.7 0 0 1-3-3.5q-6.113-1.641-11-5.499 2-1 0-2-3.52-1.068-6-3.5a52 52 0 0 0-10-1.5q.834-.575 1-1.5 2.398.401 4-1a228 228 0 0 1 29-1" clip-rule="evenodd"/><path fill="#5c1d7c" fill-rule="evenodd" d="M624.012 355.004q1.875.116 2.5 2l1-1q.561 1.375 1.5 2.5-3.178 3.327-1 7.5 3.77 2.022 5.5 6l1-1a28.5 28.5 0 0 0 4.5 9l-2 2q.383 2.765.5 6l1-1q.561 1.375 1.5 2.5a14.7 14.7 0 0 1 5 1.5 3.65 3.65 0 0 1-1 1.5q1.988-.223 3.5.5.279 3.6 1.5 7 1.388-1.712 2.5 0a71 71 0 0 1 1.5 9q2.405-.282 4 1.5-2.011 1.943-4 1.5 2.762 1.095 5.5 2 2.003 4.085.5 8a75 75 0 0 1-8 12q-.616-10.406-7.5-16-2.607-8.622-10-14a20.6 20.6 0 0 0-2-6l-9-6-2 2q-2.56-.957-5.5 0a31.1 31.1 0 0 0-1-11 3.65 3.65 0 0 1-1.5-1q-1 2-2 0-1.74 3.446-3-1-3.159 3.927-7.5 6v-1q15.282-13.114 24-31" clip-rule="evenodd"/><path fill="#d23257" fill-rule="evenodd" d="M414.012 365.004a24.8 24.8 0 0 1 8 5 15.4 15.4 0 0 0 2 4.5 57 57 0 0 0-1.5 6.5 3995 3995 0 0 0-14.5 40.5q-2.288 1.514-5 1.5-.21 2.435 2 3.5a18.5 18.5 0 0 1-6 .5q-2.819-1.262-6-1v-1q2.13-3.58 3-8 1.095-2.15 3-3.5l-1-1a351 351 0 0 1 7-16q-1.41-2.858-1-6.5a21.5 21.5 0 0 1 6-5q-1.851-9.044 4-17-1.936-1.54 0-3" clip-rule="evenodd"/><path fill="#252550" fill-rule="evenodd" d="M859.012 509.004c.22 1.175-.11 2.175-1 3-.67-2-1.33-4-2-6a41 41 0 0 1-4.5 4q-2.4-3.013-6 0c.59 2.009.43 4.009-.5 6q1.68-.147 3 1.5c-.63 2.79-.8 5.623-.5 8.5a93 93 0 0 1-10.5 5.5q-2.91 2.583-3 6.5c.03 8.941 4.36 14.108 13 15.5 2.52 2.22 4.69 4.72 6.5 7.5q1.5-2 3 0 2.79-4.012 3-9c.42 4.352 1.09 4.685 2 1a25.8 25.8 0 0 1 2 8c.04-2.474.87-4.474 2.5-6 4.26 25.522 7.6 51.188 10 77q-.06 27.929-27 34.5a501 501 0 0 1-94 2c-23.32-1.648-37.815-13.814-43.5-36.5a2468 2468 0 0 1-32-163 72.5 72.5 0 0 1 0-17q16.742-35.724 43-65c9.26-9.211 20.42-13.878 33.5-14q13.62.77 27 3.5a664 664 0 0 1 60 16.5 112 112 0 0 0 7.5 32c3.45 3.645 7.62 6.145 12.5 7.5 17.6 3.075 35.27 5.742 53 8 19.95 3.734 28.11 15.567 24.5 35.5q-4.71 14.71-19.5 19.5c-20.2 6.004-40.86 8.837-62 8.5z" clip-rule="evenodd"/><path fill="#c72c58" fill-rule="evenodd" d="M422.012 370.004a36 36 0 0 1 7 4 32.5 32.5 0 0 0 .5 8q.477 2.342 2.5 3.5-2.487 1.088-1.5 3.5 1.597-2.844 2.5-.5l-1.5 4.5-1-3a11.3 11.3 0 0 1-1.5 3.5q-1.632 4.864 0 10-1.423.926-2.5-.5-1.14 2.995-1.5 5-.963-4.946-3.5-1a92 92 0 0 1-5.5 15.5q1.143 3.982-3 6 1.636 2.325 4 3.5-9.617-1.148-18-5a18.5 18.5 0 0 0 6-.5q-2.21-1.065-2-3.5 2.712.014 5-1.5a3995 3995 0 0 1 14.5-40.5 57 57 0 0 1 1.5-6.5 15.4 15.4 0 0 1-2-4.5" clip-rule="evenodd"/><path fill="#f94e69" fill-rule="evenodd" d="M315.012 387.004a46.8 46.8 0 0 1 12 7q6.988 3.995 14 8a19 19 0 0 1 7 5q-4.647-.13-1 1.5l-2 2a566 566 0 0 0 15 28q-1.701 1.524 1 2-1.908 3.066 1 5.5l-2 4a435 435 0 0 0-27-23 26.4 26.4 0 0 1 4.5-4q1-1 0-2a31.6 31.6 0 0 1-6-5l-1 2q-.75-1.75-2.5-2.5l3-1a14.4 14.4 0 0 1-2.5-5.5q-7.405-8.908-17.5-14.5a6.8 6.8 0 0 0 3-1.5l-1-1a6.85 6.85 0 0 1-4 1v-3q3.732-.274 6-3" clip-rule="evenodd"/><path fill="#da3355" fill-rule="evenodd" d="M403.012 358.004a60 60 0 0 1 11 7q-1.936 1.46 0 3-5.851 7.956-4 17a21.5 21.5 0 0 0-6 5q-.41 3.642 1 6.5a351 351 0 0 0-7 16l1 1q-1.905 1.35-3 3.5-.87 4.42-3 8a168 168 0 0 1-14-4v-1h4a6.85 6.85 0 0 1 1-4q4.768-1.634 8-5.5a115 115 0 0 0 4-10 4.93 4.93 0 0 1-1-2.5 536 536 0 0 1 12-35 377 377 0 0 0-5-4.5q.343-.598 1-.5" clip-rule="evenodd"/><path fill="#af2660" fill-rule="evenodd" d="M439.012 380.004a254 254 0 0 1 19 10q-1.314-.197-2 1a17.5 17.5 0 0 1-3 6q3.347 9.215-4 15.5.912 3.276-2 6l1 1-4.5 4.5a89 89 0 0 1-1.5 12q-7.846.084-15-2 5.09-2.29 4-8 4.525-1.256 7-5.5 1.659-7.176 6-13a3.65 3.65 0 0 1-1-1.5q2.253-7.852 5-14.5a41 41 0 0 1-7-5q4.25-2.75-.5-4.5-3.14 1.1-1.5-2" clip-rule="evenodd"/><path fill="#661a7e" fill-rule="evenodd" d="M651.012 434.004a73.4 73.4 0 0 1-8 12q-2.221-4.095 1-7.5-2.943-2.823-4.5-8.5-4.913-4.506-10-3-2.626-2.985-3-7-.803 2.656-2.5 1l1-2a47 47 0 0 1-1.5-8q-1-2-2 0-1.854-3.898-.5-7.5-.51-6.756-7-8.5h-5a17.8 17.8 0 0 0-3.5 5 25.6 25.6 0 0 1-5.5-6.5q-2.189.533-4-.5a18.3 18.3 0 0 1 4-6q4.341-2.073 7.5-6 1.26 4.446 3 1 1 2 2 0 .621.686 1.5 1a31.1 31.1 0 0 1 1 11q2.94-.957 5.5 0l2-2 9 6a20.6 20.6 0 0 1 2 6q7.393 5.378 10 14 6.884 5.594 7.5 16" clip-rule="evenodd"/><path fill="#bb285d" fill-rule="evenodd" d="M429.012 374.004a48.2 48.2 0 0 1 10 6q-1.64 3.1 1.5 2 4.75 1.75.5 4.5a41 41 0 0 0 7 5q-2.747 6.648-5 14.5a3.65 3.65 0 0 0 1 1.5q-4.341 5.824-6 13-2.475 4.244-7 5.5 1.09 5.71-4 8a53.8 53.8 0 0 1-10-2q-2.364-1.175-4-3.5 4.143-2.018 3-6a92 92 0 0 0 5.5-15.5q2.537-3.946 3.5 1 .36-2.005 1.5-5 1.077 1.426 2.5.5-1.632-5.136 0-10a11.3 11.3 0 0 0 1.5-3.5l1 3 1.5-4.5q-.903-2.344-2.5.5-.987-2.412 1.5-3.5-2.023-1.158-2.5-3.5a32.5 32.5 0 0 1-.5-8" clip-rule="evenodd"/><path fill="#6e1983" fill-rule="evenodd" d="M596.012 393.004q1.811 1.033 4 .5a25.6 25.6 0 0 0 5.5 6.5 17.8 17.8 0 0 1 3.5-5h5q6.49 1.744 7 8.5-1.354 3.602.5 7.5 1-2 2 0 .405 4.086 1.5 8l-1 2q1.697 1.656 2.5-1 .374 4.015 3 7 5.087-1.506 10 3 1.557 5.677 4.5 8.5-3.221 3.405-1 7.5-3.96 6.474-8 13-1.348-5.477-2.5-12a19.5 19.5 0 0 1-4.5-8q-1.337-1.635-3 0a44.3 44.3 0 0 1-9.5-9q-1.804-5.012-6-10a62 62 0 0 0-4-11l-1 2a32 32 0 0 1-6-5l-1 1q-2.985-6.055-9.5-7 3.035-4.53 8-7" clip-rule="evenodd"/><path fill="#f95132" fill-rule="evenodd" d="M77.012 415.004a212 212 0 0 0-21 17.5q-11.22 10.487-26.5 11.5-33.4-3.422-29-37a42.5 42.5 0 0 1 5.5-11q3.096.393 4 3.5 4.586.384 9 1.5 6.466-3.315 8.5-9a29 29 0 0 0 1.5 4q-1.143.616-3 .5a51 51 0 0 1 4 5.5l2-1a23.7 23.7 0 0 0 3 3.5q-4.123 3.285 1 5-2.184.634-1.5 2.5 2.59-1.614 5.5-.5a100 100 0 0 0 14.5 7.5 34.2 34.2 0 0 1 6.5-3 19.9 19.9 0 0 0-4-3.5q3.845-1.377 6.5 1.5a7.3 7.3 0 0 1 2-3q3.718 1.42 7 0l2 2q1.962-.977 2.5 2" clip-rule="evenodd"/><path fill="#931f65" fill-rule="evenodd" d="M475.012 398.004q5.44 1.231 10 4-2.153 2.375-5 4.5 2.037 3.04 2.5 6.5 1.217-2.19 2.5-1a657 657 0 0 0-11 16.5q-.522 3.083 2 6-1.684 1.565-4 2 5.478.748 11 .5v1h-24q.656-2.361 3-3.5a6.55 6.55 0 0 0-3-3q2.701-.476 1-2a237 237 0 0 1 7-15.5q-1.606-2.738 2-3.5l-1-1q4.41-3.544 4-8.5.519-1.794 1.5 0 1.559-1.116 1.5-3" clip-rule="evenodd"/><path fill="#781b84" fill-rule="evenodd" d="M588.012 400.004q6.515.945 9.5 7l1-1a32 32 0 0 0 6 5l1-2a62 62 0 0 1 4 11q4.196 4.988 6 10a44.3 44.3 0 0 0 9.5 9q1.663-1.635 3 0a19.5 19.5 0 0 0 4.5 8q1.152 6.523 2.5 12l-7 10q-1.337-1.142-2-3 2.623-3.124 2.5-7a7.3 7.3 0 0 0-2 3 24.6 24.6 0 0 0-3-8 21 21 0 0 0-2.5-1 4.46 4.46 0 0 1 2-1.5q-2.98-1.978-3.5-5.5a29 29 0 0 0-2.5 5 32 32 0 0 0-2.5-4q-1 2-2 0-1.08-2.418.5-4.5-2.009-3.933-5-5a34.5 34.5 0 0 1 1-6 39.7 39.7 0 0 0-7-8q1.58-2.082.5-4.5l-1 1a15.5 15.5 0 0 1-3-5q-2.52 1.655-4.5-1a51 51 0 0 0-2 6q1.113 2.775 3 2-2.182 2.58-2.5 6a99 99 0 0 1-9.5-10 580 580 0 0 1-19-2 289 289 0 0 0 24-16" clip-rule="evenodd"/><path fill="#a22164" fill-rule="evenodd" d="M458.012 390.005a200 200 0 0 1 17 8q.059 1.884-1.5 3-.981-1.794-1.5 0 .41 4.956-4 8.5l1 1q-3.606.762-2 3.5a237 237 0 0 0-7 15.5q1.701 1.524-1 2a6.55 6.55 0 0 1 3 3q-2.344 1.139-3 3.5a97 97 0 0 1-16-1h-1v-1a89 89 0 0 0 1.5-12l4.5-4.5-1-1q2.912-2.724 2-6 7.347-6.284 4-15.5a17.5 17.5 0 0 0 3-6q.686-1.197 2-1" clip-rule="evenodd"/><path fill="#841e6a" fill-rule="evenodd" d="M485.012 402.004a257 257 0 0 1 17 5q-1.857.465 0 1.5-7.903 1.96-3 8.5a4.46 4.46 0 0 0 1.5-2l.5 1.5q-1.386 1.725 0 3-1.456 1.806-3 1.5l1 2a59.5 59.5 0 0 0-3 7q-3.195.037-6 1.5.803 3.163 3 1.5 3.792 1.497 0 2.5a8.4 8.4 0 0 0 4 .5v1h-14a61 61 0 0 1-11-.5q2.316-.435 4-2-2.522-2.917-2-6a657 657 0 0 1 11-16.5q-1.283-1.19-2.5 1-.463-3.46-2.5-6.5 2.847-2.125 5-4.5" clip-rule="evenodd"/><path fill="#681d70" fill-rule="evenodd" d="M514.012 409.004q7.49.624 15 1-6.545 7.618-7.5 18-3.735 2.17-.5 3l-5 2q-3.182-.262-6 1a25 25 0 0 1-7-.5l7-3q1.317-3.115 0-7 3.5-1.864 2-5 3.157-.733 1-3.5a9.2 9.2 0 0 1 2-4.5l-4-1a4.93 4.93 0 0 1 3-.5" clip-rule="evenodd"/><path fill="#252550" fill-rule="evenodd" d="M353.012 499.004q-4.098-1.857-9-5-.972-2.473-3-4-1.943 5.82 0 11.5a9.5 9.5 0 0 0-1.5 2.5q-1.72-1.437-3 1l-.5 2.5q1.317 2.668 0 5 3.747 5.61 6 14a14.7 14.7 0 0 0-2.5 6.5q-1.334-2.082-1.5.5a3.94 3.94 0 0 0 1 2 217 217 0 0 1-2.5 15.5l-2.5-3a124 124 0 0 0-13.5 8q.647 4.236-1.5 8.5a49 49 0 0 0 5 8q-2.569 5.276-8 2.5-2.33-3.65-2-8-7.091.412-9.5 7a32.4 32.4 0 0 0-4.5 3q-.54-4.996-4.5-8a15.7 15.7 0 0 0-2.5 4q.858 3.281 0 7 4.403 1.617 8 0a58.5 58.5 0 0 0 6 12.5q-3.23 8.772 6 6l2-4q2.363.568 4.5-.5l1 5 1-1q-.098 9.916 2.5 19a127.8 127.8 0 0 1-11.5 35q-8.115 11.943-22.5 14.5a740 740 0 0 1-131 1q-19.634-4.135-24.5-23.5-1-10.5 0-21a79406 79406 0 0 1 44.5-213q106.506 2.884 174.5 84 .577 2.545-.5 5" clip-rule="evenodd"/><path fill="#591e70" fill-rule="evenodd" d="M529.012 410.004h7q2.687 7.87-3 14a3.65 3.65 0 0 0 1 1.5q-3.308 2.14-6.5 1.5-.792 1.974 1.5 2l-4 2h-4q-3.235-.83.5-3 .955-10.382 7.5-18" clip-rule="evenodd"/><path fill="#491f71" fill-rule="evenodd" d="M600.012 386.004v1a18.3 18.3 0 0 0-4 6q-4.965 2.47-8 7a289 289 0 0 1-24 16 527 527 0 0 1-29 12l-6 1q-2.292-.026-1.5-2 3.192.64 6.5-1.5a3.65 3.65 0 0 1-1-1.5q5.687-6.13 3-14 36.058-1.68 64-24" clip-rule="evenodd"/><path fill="#811989" fill-rule="evenodd" d="M628.012 469.004a21.6 21.6 0 0 1-4 5q-4.48-7.943-14-13-11.446-11.685-24.5-24a52.4 52.4 0 0 1-7.5-9.5q1.752-2.108-1-3.5a42.2 42.2 0 0 0-14-4.5q1.255-1.517 1-3.5a580 580 0 0 0 19 2 99 99 0 0 0 9.5 10q.318-3.42 2.5-6-1.887.775-3-2a51 51 0 0 1 2-6q1.98 2.655 4.5 1a15.5 15.5 0 0 0 3 5l1-1q1.08 2.418-.5 4.5a39.7 39.7 0 0 1 7 8 34.5 34.5 0 0 0-1 6q2.991 1.067 5 5-1.58 2.082-.5 4.5 1 2 2 0a32 32 0 0 1 2.5 4 29 29 0 0 1 2.5-5q.52 3.522 3.5 5.5a4.46 4.46 0 0 0-2 1.5q1.12.354 2.5 1a24.6 24.6 0 0 1 3 8 7.3 7.3 0 0 1 2-3q.123 3.876-2.5 7 .663 1.858 2 3" clip-rule="evenodd"/><path fill="#f9446f" fill-rule="evenodd" d="m348.012 407.005 4 1a10.2 10.2 0 0 1 3 3q-.814.09-1 1a15 15 0 0 0 3 3.5l-1 1q8.325 1.881 7.5 10.5a72 72 0 0 1 6.5 12.5q-1.426 1.077-.5 2.5 6.414 3.067 4.5 8.5a7.3 7.3 0 0 0 3 2q-4 1 0 2l-1 1q2.319 2.16 2.5 5.5l1-1q.861 2.988 3.5 4.5-3.02 1.313 0 4-1.321 1.063-2 2.5a312 312 0 0 1-21-21l2-4q-2.908-2.434-1-5.5-2.701-.476-1-2a566 566 0 0 1-15-28l2-2q-3.647-1.63 1-1.5" clip-rule="evenodd"/><path fill="#8d1a89" fill-rule="evenodd" d="M564.012 416.004q.255 1.983-1 3.5a42.2 42.2 0 0 1 14 4.5q2.752 1.392 1 3.5a52.4 52.4 0 0 0 7.5 9.5q13.054 12.315 24.5 24 9.52 5.057 14 13a168 168 0 0 1-17 25q-.882-2.558-1-5 1.543.306 3-1.5l-2-1q2-1 0-2 2.594-2.778 3.5.5.75-1.75 2.5-2.5a22 22 0 0 1-4.5-6.5 44.7 44.7 0 0 1-11.5-8.5 103 103 0 0 0-11.5-12.5 92.8 92.8 0 0 0-10.5-15q-12.876-6.907-22-18a37 37 0 0 1-4.5-2q-6.385 2.859-13.5 3a527 527 0 0 0 29-12" clip-rule="evenodd"/><path fill="#981989" fill-rule="evenodd" d="M607.012 499.004q-2.343 5.838-7 10a17.7 17.7 0 0 1-.5-6q.634 2.184 2.5 1.5-1.682-4.605-5-8 1.426-1.077.5-2.5a683 683 0 0 0-30.5-31.5l1-1a376 376 0 0 0-13.5-12.5l-1 1a1497 1497 0 0 1-12.5-13.5q-3.82-.829-6-4a47.2 47.2 0 0 0-10-1.5l4-2 6-1q7.115-.141 13.5-3a37 37 0 0 0 4.5 2q9.124 11.093 22 18a92.8 92.8 0 0 1 10.5 15 103 103 0 0 1 11.5 12.5 44.7 44.7 0 0 0 11.5 8.5 22 22 0 0 0 4.5 6.5q-1.75.75-2.5 2.5-.906-3.278-3.5-.5 2 1 0 2l2 1q-1.457 1.806-3 1.5.118 2.442 1 5" clip-rule="evenodd"/><path fill="#761e6f" fill-rule="evenodd" d="M502.012 407.005q6.396-.234 12 2a4.93 4.93 0 0 0-3 .5l4 1a9.2 9.2 0 0 0-2 4.5q2.157 2.767-1 3.5 1.5 3.136-2 5 1.317 3.885 0 7l-7 3q3.465.745 7 .5l-8 2h-5a8.4 8.4 0 0 1-4-.5q3.792-1.003 0-2.5-2.197 1.663-3-1.5a13.1 13.1 0 0 1 6-1.5 59.5 59.5 0 0 1 3-7l-1-2q1.544.306 3-1.5-1.386-1.275 0-3l-.5-1.5a4.46 4.46 0 0 1-1.5 2q-4.903-6.54 3-8.5-1.857-1.035 0-1.5" clip-rule="evenodd"/><path fill="#b2188e" fill-rule="evenodd" d="M516.012 433.004q6.488-.597 7.5 6 3.75 2.75 6.5 6.5a8.4 8.4 0 0 0 4 .5q.531 3.061 0 5.5a430 430 0 0 0 20 13.5 54.8 54.8 0 0 0 7 10q-1.575 1.393 0 2-1.164 3.711-4.5 2-1.974 3.792-3.5 0-1.717 1.914 0 4-.565 3.486-3 2-15.847-18.651-35-31.5-3.368-7.705-11-13.5-1.816-1.83 0-3.5a2.43 2.43 0 0 0-2-.5l8-2q2.819-1.262 6-1" clip-rule="evenodd"/><path fill="#f93976" fill-rule="evenodd" d="m355.012 411.004 4 1q7.556 3.857 16 6 1.52 1.76 4 2v1a28.7 28.7 0 0 1-7-2l-2 1q1.263 6.001 6.5 9 3.604 11.103 13 18 2.309 5.985-.5 12 2.617 5.835 8.5 9 3.787 9.843 13 17 1.026 1.926-.5 3.5 3.17 2.976 3.5 7.5a102 102 0 0 1 12 12 12.9 12.9 0 0 1 .5 5q4.09 1.301 6 5.5l-1 1a4.93 4.93 0 0 0 3 .5q.257 4.946-2 1-1.5.5-2 2 3.775.794 6.5 3 2.53 2.502.5 5.5.383 1.989 2 3l-1 1a8.4 8.4 0 0 0 4 .5q-.428 2.682 1 5a54 54 0 0 0 7.5 5l1-1 4.5 5.5-1 1a4.93 4.93 0 0 0 3 .5q.21 2.436-2 3.5 2.763 4.526 8 4.5.29 5.923 1.5 0l1 5q2.806-1.752 4.5 1.5-3.647 1.63 1 1.5a12.9 12.9 0 0 0 .5 5l1-1q1.25 3.25 4.5 4.5-1.254 1.865 1 3.5 4.009 2.514 8 5a6.85 6.85 0 0 1 1 4h-3q-15.273-10.008-27.5-24a2065 2065 0 0 0-76.5-94q.679-1.437 2-2.5-3.02-2.687 0-4-2.639-1.512-3.5-4.5l-1 1q-.181-3.34-2.5-5.5l1-1q-4-1 0-2a7.3 7.3 0 0 1-3-2q1.914-5.433-4.5-8.5-.926-1.423.5-2.5a72 72 0 0 0-6.5-12.5q.825-8.619-7.5-10.5l1-1a15 15 0 0 1-3-3.5q.186-.91 1-1" clip-rule="evenodd"/><path fill="#e31f88" fill-rule="evenodd" d="M442.012 437.005h1q2.19 7.064 9.5 12a260 260 0 0 0 17 21l1-1a137.2 137.2 0 0 0 23 23 1987 1987 0 0 0 18 20 55 55 0 0 0 4.5 8q13.922 12.915 28 26 3.14 5.565 8 9.5-1.606 2.738 2 3.5 1.329 1.238 1 3 4.058-.18 2 3 .519 1.794 1.5 0 .724 1.422.5 3-6.22 10.903-16 19a44 44 0 0 0-1-2q2.5-1.5 4-4a4.46 4.46 0 0 0-2-1.5q1.526-1.574.5-3.5-1.67 1.817-3.5 0a6.8 6.8 0 0 0-1.5 3q-1.302-5.317-4.5-2a177 177 0 0 1-6-1q-.762-2.6-2.5-1-2.045-4.975 1-10 .435 2.316 2 4l1.5-1.5a88 88 0 0 1-10-12q1.526-1.574.5-3.5-4.543-2.293-6.5-7-1.83-1.817-3.5 0-1.986-2.07-4-1a43 43 0 0 1-1.5-5q.537-5.851 0-12-6.674 1.073-12.5 1a6.55 6.55 0 0 1-3-3 34.8 34.8 0 0 0-2-10q-1.697 1.656-2.5-1a100 100 0 0 0-5.5-2q-2.943.704-5.5-2-.099-4.2 0-8.5-.224-5.98-6-7 1.26-2.5-1.5-.5l-5-2q1.191-2.979-1.5-5.5l1-1a9.5 9.5 0 0 1-2.5-1.5q-.478-5.21-4.5-8.5a4.46 4.46 0 0 0 2-1.5q-.25-5.34-5-7.5l1-1a148 148 0 0 0-9-3.5q-2.655-1.98-1-4.5a57 57 0 0 1-2-9.5q-6.021-.09-9.5-5l-1 2-4.5-6.5a72.3 72.3 0 0 1 16-1.5" clip-rule="evenodd"/><path fill="#eb2583" fill-rule="evenodd" d="M393.012 426.004q3.181-.262 6 1 8.383 3.852 18 5a53.8 53.8 0 0 0 10 2q7.154 2.084 15 2v1a72.3 72.3 0 0 0-16 1.5l4.5 6.5 1-2q3.479 4.91 9.5 5a57 57 0 0 0 2 9.5q-1.655 2.52 1 4.5a148 148 0 0 1 9 3.5l-1 1q4.75 2.16 5 7.5a4.46 4.46 0 0 1-2 1.5q4.022 3.29 4.5 8.5a9.5 9.5 0 0 0 2.5 1.5l-1 1q2.691 2.521 1.5 5.5l5 2q2.76-2 1.5.5 5.776 1.02 6 7-.099 4.3 0 8.5 2.557 2.704 5.5 2 2.738.905 5.5 2 .803 2.656 2.5 1a34.8 34.8 0 0 1 2 10 6.55 6.55 0 0 0 3 3q5.826.073 12.5-1 .537 6.149 0 12a43 43 0 0 0 1.5 5q2.014-1.07 4 1 1.67-1.817 3.5 0 1.957 4.707 6.5 7 1.026 1.926-.5 3.5a88 88 0 0 0 10 12l-1.5 1.5q-1.565-1.684-2-4-3.045 5.025-1 10 1.738-1.6 2.5 1-3.061-.531-5.5 0-2.623-6.618-8.5-10.5a11.53 11.53 0 0 1-4.5-3.5q-2.76 2-1.5-.5a32.3 32.3 0 0 0-8-8.5q-4.21-8.144-10-14.5-3.42-.35-6-2.5a62.4 62.4 0 0 0-10.5-11q-7.652-11.448-19-22a70 70 0 0 1-7.5-13q-10.018-6.52-16-17a257 257 0 0 1-11.5-10q-.41-2.743-2.5-4.5l1-1q-4.895-4.507-10-10.5-7.173-5.915-11.5-14-2.26 1.552-4.5-.5a21.8 21.8 0 0 1-6-5q1.701-1.524-1-2a45 45 0 0 1 7 .5" clip-rule="evenodd"/><path fill="#f9327d" fill-rule="evenodd" d="M379.012 421.004a168 168 0 0 0 14 4v1a45 45 0 0 0-7-.5q2.701.476 1 2a21.8 21.8 0 0 0 6 5q2.24 2.052 4.5.5 4.327 8.085 11.5 14a163 163 0 0 0 2 16q3.295 2.7 7 1.5 2 1.5 0 3 2.752 1.392 1 3.5a32.5 32.5 0 0 1 6 2.5 3.65 3.65 0 0 0-1 1.5q2.698 5.705 2 11.5a34 34 0 0 1 1.5 7.5 176 176 0 0 0 11.5 11q3.654-2.087 2 1.5a11.53 11.53 0 0 1 3.5 4.5l1-2q3.273 2.145 6.5 4.5l-2 2q4.575.745 3 4.5 10.57 7.919 17.5 21 3.746 3.475 7.5 7a35 35 0 0 1-1 4.5q.438 4.568 4.5 6.5 3.058 5.922 7 9a20.6 20.6 0 0 0 2 6q4.904 2.454 8 7 .684 1.866-1.5 2.5a20.4 20.4 0 0 1 1.5 5.5q2.343-.361 4.5 1.5l-3 1 18.5 3.5 1-1q.886 1.475-1 2a28 28 0 0 0-6-1q-2.979.103-4.5 2-12.619-1.038-23-8h3a6.85 6.85 0 0 0-1-4 3332 3332 0 0 1-8-5q-2.254-1.635-1-3.5-3.25-1.25-4.5-4.5l-1 1a12.9 12.9 0 0 1-.5-5q-4.647.13-1-1.5-1.694-3.252-4.5-1.5l-1-5q-1.21 5.923-1.5 0-5.237.026-8-4.5 2.21-1.064 2-3.5a4.93 4.93 0 0 1-3-.5l1-1-4.5-5.5-1 1a54 54 0 0 1-7.5-5q-1.428-2.318-1-5a8.4 8.4 0 0 1-4-.5l1-1q-1.617-1.011-2-3 2.03-2.998-.5-5.5-2.725-2.206-6.5-3 .5-1.5 2-2 2.257 3.946 2-1a4.93 4.93 0 0 1-3-.5l1-1q-1.91-4.199-6-5.5a12.9 12.9 0 0 0-.5-5 102 102 0 0 0-12-12q-.33-4.524-3.5-7.5 1.526-1.574.5-3.5-9.213-7.157-13-17-5.883-3.165-8.5-9 2.809-6.015.5-12-9.396-6.897-13-18-5.237-2.999-6.5-9l2-1a28.7 28.7 0 0 0 7 2" clip-rule="evenodd"/><path fill="#f42a83" fill-rule="evenodd" d="M409.012 447.004q5.105 5.993 10 10.5l-1 1q2.09 1.757 2.5 4.5a257 257 0 0 0 11.5 10q5.982 10.48 16 17a70 70 0 0 0 7.5 13q11.348 10.552 19 22a62.4 62.4 0 0 1 10.5 11q2.58 2.15 6 2.5 5.79 6.356 10 14.5a32.3 32.3 0 0 1 8 8.5q-1.26 2.5 1.5.5a11.53 11.53 0 0 0 4.5 3.5q5.877 3.882 8.5 10.5 2.439-.531 5.5 0 2.957.546 6 1 3.198-3.317 4.5 2a6.8 6.8 0 0 1 1.5-3q1.83 1.817 3.5 0 1.026 1.926-.5 3.5a4.46 4.46 0 0 1 2 1.5q-1.5 2.5-4 4 .544 1.025 1 2-15.522 11.262-35 10 1.521-1.897 4.5-2 3.063.173 6 1 1.886-.525 1-2l-1 1-18.5-3.5 3-1q-2.157-1.861-4.5-1.5a20.4 20.4 0 0 0-1.5-5.5q2.184-.634 1.5-2.5-3.096-4.546-8-7a20.6 20.6 0 0 1-2-6q-3.942-3.078-7-9-4.062-1.932-4.5-6.5a35 35 0 0 0 1-4.5q-3.754-3.525-7.5-7-6.93-13.081-17.5-21 1.575-3.755-3-4.5l2-2a157 157 0 0 0-6.5-4.5l-1 2a11.53 11.53 0 0 0-3.5-4.5q1.654-3.587-2-1.5a176 176 0 0 1-11.5-11 34 34 0 0 0-1.5-7.5q.698-5.795-2-11.5a3.65 3.65 0 0 1 1-1.5 32.5 32.5 0 0 0-6-2.5q1.752-2.108-1-3.5 2-1.5 0-3-3.705 1.2-7-1.5a163 163 0 0 1-2-16" clip-rule="evenodd"/><path fill="#a4198b" fill-rule="evenodd" d="M521.012 431.004h4q5.062.21 10 1.5 2.18 3.171 6 4 6.25 6.834 12.5 13.5l1-1a376 376 0 0 1 13.5 12.5l-1 1a683 683 0 0 1 30.5 31.5q.926 1.423-.5 2.5 3.318 3.395 5 8-1.866.684-2.5-1.5a17.7 17.7 0 0 0 .5 6 57.5 57.5 0 0 1-8 12q-.258-2.987 2-5-2.057-4.239 3-4.5a14.7 14.7 0 0 1-5-1.5 240 240 0 0 1-12.5-16q-2-2-4 0-2.616-1.724-.5-4a7108 7108 0 0 0-14-13q-1.575-.607 0-2a54.8 54.8 0 0 1-7-10 430 430 0 0 1-20-13.5q.531-2.439 0-5.5a8.4 8.4 0 0 1-4-.5q-2.75-3.75-6.5-6.5-1.012-6.597-7.5-6z" clip-rule="evenodd"/><path fill="#d81b89" fill-rule="evenodd" d="M443.012 437.004a97 97 0 0 0 16 1h11q.166.925 1 1.5a6.55 6.55 0 0 0-3 3 6.98 6.98 0 0 1 3.5 2.5 31.5 31.5 0 0 1 4 7 3.65 3.65 0 0 1 1.5-1l2.5 3q2.084-5.658 3 0a34.5 34.5 0 0 1 6-1q3.037 2.751-.5 5-2.44-2.129-1.5 1 4.397 1.603 3.5 5.5l5 1q-1.552 2.26.5 4.5 1.077-1.426 2.5-.5-3.815 2.222-5 6.5a10.8 10.8 0 0 1 2.5 3 4.46 4.46 0 0 1 1.5-2q2.268 4.428 6 2a7.25 7.25 0 0 1 2.5 2q.405 4.086 1.5 8-2.38 2.919 1 4.5-1.818 1.66 1 1.5a89 89 0 0 0 4 7 396 396 0 0 1 17 16.5q10.683 14.203 25.5 26.5a47 47 0 0 0 6 7q1.046 4.413 3.5 8a36 36 0 0 1-6 8 4.93 4.93 0 0 0-.5-3q-.981 1.794-1.5 0 2.058-3.18-2-3 .329-1.762-1-3-3.606-.762-2-3.5-4.86-3.935-8-9.5-14.078-13.085-28-26a55 55 0 0 1-4.5-8 1987 1987 0 0 1-18-20 137.2 137.2 0 0 1-23-23l-1 1a260 260 0 0 1-17-21q-7.31-4.936-9.5-12" clip-rule="evenodd"/><path fill="#25254b" fill-rule="evenodd" d="M353.012 499.004a2969 2969 0 0 1-29 118q-2.598-9.084-2.5-19l-1 1-1-5q-2.137 1.068-4.5.5l-2 4q-9.23 2.772-6-6a58.5 58.5 0 0 1-6-12.5q-3.597 1.617-8 0 .858-3.719 0-7a15.7 15.7 0 0 1 2.5-4q3.96 3.004 4.5 8a32.4 32.4 0 0 1 4.5-3q2.409-6.588 9.5-7-.33 4.35 2 8 5.431 2.776 8-2.5a49 49 0 0 1-5-8q2.147-4.264 1.5-8.5a124 124 0 0 1 13.5-8l2.5 3a217 217 0 0 0 2.5-15.5 3.94 3.94 0 0 1-1-2q.166-2.582 1.5-.5a14.7 14.7 0 0 1 2.5-6.5q-2.253-8.39-6-14 1.317-2.332 0-5l.5-2.5q1.28-2.437 3-1a9.5 9.5 0 0 1 1.5-2.5q-1.943-5.68 0-11.5 2.028 1.527 3 4 4.902 3.143 9 5" clip-rule="evenodd"/><path fill="#b5188b" fill-rule="evenodd" d="M497.012 437.004v-1h5a2.43 2.43 0 0 1 2 .5q-1.816 1.67 0 3.5 7.632 5.795 11 13.5 19.153 12.849 35 31.5 2.435 1.486 3-2-1.717-2.086 0-4 1.526 3.792 3.5 0 3.336 1.711 4.5-2 6.88 6.372 14 13-2.116 2.276.5 4 2-2 4 0a240 240 0 0 0 12.5 16 14.7 14.7 0 0 0 5 1.5q-5.057.261-3 4.5-2.258 2.013-2 5a73.4 73.4 0 0 1-8 12q.308-2.456-1.5-5l-9.5-7.5q5.174.133 10 2.5l2-1a166.8 166.8 0 0 1-24.5-24 4.46 4.46 0 0 1-1.5 2q-1.817-1.16 0-2.5-5.027-.672-6.5-5.5-1.67 2.744-4.5 2.5a14.5 14.5 0 0 0-4-5l1-1a15.5 15.5 0 0 0-5-3 11.3 11.3 0 0 1-1.5-3.5l-1 1a371 371 0 0 0-16.5-16q3.504-1.64 0-4-1.137 1.966-3 1.5-11.469-11.488-21-25 1.252-1.696 0-2.5" clip-rule="evenodd"/><path fill="#be198c" fill-rule="evenodd" d="M483.012 438.004v-1h14q1.252.804 0 2.5 9.531 13.512 21 25 1.863.466 3-1.5 3.504 2.36 0 4a371 371 0 0 1 16.5 16l1-1a11.3 11.3 0 0 0 1.5 3.5 15.5 15.5 0 0 1 5 3l-1 1a14.5 14.5 0 0 1 4 5q2.83.244 4.5-2.5 1.473 4.828 6.5 5.5-1.817 1.34 0 2.5a4.46 4.46 0 0 0 1.5-2 166.8 166.8 0 0 0 24.5 24l-2 1q-4.826-2.367-10-2.5l9.5 7.5q1.808 2.544 1.5 5a62.7 62.7 0 0 1-6 9q.272-4.58.5-9-5.582-6.076-13.5-8.5l1-1a230.5 230.5 0 0 1-22.5-24.5q-18.811-20.575-41.5-42a46.6 46.6 0 0 0-11.5-14q-1.08-2.418.5-4.5a32.5 32.5 0 0 0-8-.5" clip-rule="evenodd"/><path fill="#d21989" fill-rule="evenodd" d="M567.012 557.004q-.648 1.815-2 3-2.454-3.587-3.5-8a47 47 0 0 1-6-7q-14.817-12.297-25.5-26.5a396 396 0 0 0-17-16.5 89 89 0 0 1-4-7q-.197-1.314 1-2l1 2q8.828-1.206 12 7.5 1 1 2 0-1.794-.981 0-1.5a6.8 6.8 0 0 1 1.5 3q3.087-.913 2.5-3 1.567 3.809 5.5 2 2.235 1.225 4.5 2.5-2.882 1.546 0 4.5 1.954 1.827 3-1l6 8q7.887 5.63 14.5 13a17.7 17.7 0 0 1-.5 6q-5.467-1.23-7 4 2.313.291 4 3.5 4.308 2.025 8.5 1.5 1.023 3.657-1.5 6.5a13 13 0 0 1 1 5.5" clip-rule="evenodd"/><path fill="#25254b" fill-rule="evenodd" d="M705.012 497.005a56.2 56.2 0 0 1 18 2.5 40.4 40.4 0 0 1 8 13q3 1 6 0 3.075-6.309 9-3c1.14 5.082 1.3 10.249.5 15.5-2.06 2.514-4.39 3.847-7 4a50.8 50.8 0 0 1-8-9c-.33.333-.67.667-1 1-2.12-.727-4.29-1.394-6.5-2q-4.56 3.267-7-2.5.629-3.129 3.5-4.5 1.206-6.19-5-8-5.788.141-11.5 0-2.14-3.924 1-7" clip-rule="evenodd"/><path fill="#ca198d" fill-rule="evenodd" d="M470.012 438.004h13a32.5 32.5 0 0 1 8 .5q-1.58 2.082-.5 4.5a46.6 46.6 0 0 1 11.5 14q22.689 21.425 41.5 42a230.5 230.5 0 0 0 22.5 24.5l-1 1q7.918 2.424 13.5 8.5-.228 4.42-.5 9a183 183 0 0 1-11 15 13 13 0 0 0-1-5.5q2.523-2.843 1.5-6.5-4.192.525-8.5-1.5-1.687-3.209-4-3.5 1.533-5.23 7-4a17.7 17.7 0 0 0 .5-6q-6.613-7.37-14.5-13l-6-8q-1.046 2.827-3 1-2.882-2.954 0-4.5-2.265-1.275-4.5-2.5-3.933 1.809-5.5-2 .587 2.087-2.5 3a6.8 6.8 0 0 0-1.5-3q-1.794.519 0 1.5-1 1-2 0-3.173-8.706-12-7.5l-1-2q-1.197.686-1 2-2.818.16-1-1.5-3.38-1.581-1-4.5a47 47 0 0 1-1.5-8 7.25 7.25 0 0 0-2.5-2q-3.732 2.428-6-2a4.46 4.46 0 0 0-1.5 2 10.8 10.8 0 0 0-2.5-3q1.185-4.278 5-6.5-1.423-.926-2.5.5-2.052-2.24-.5-4.5l-5-1q.897-3.897-3.5-5.5-.94-3.129 1.5-1 3.537-2.249.5-5a34.5 34.5 0 0 0-6 1q-.916-5.658-3 0l-2.5-3a3.65 3.65 0 0 0-1.5 1 31.5 31.5 0 0 0-4-7 6.98 6.98 0 0 0-3.5-2.5 6.55 6.55 0 0 1 3-3q-.834-.575-1-1.5" clip-rule="evenodd"/><path fill="#26264c" fill-rule="evenodd" d="M859.012 509.004c2.87 15.1 5.21 30.433 7 46-1.63 1.526-2.46 3.526-2.5 6a25.8 25.8 0 0 0-2-8c-.91 3.685-1.58 3.352-2-1q-.21 4.988-3 9-1.5-2-3 0a36.5 36.5 0 0 0-6.5-7.5c-8.64-1.392-12.97-6.559-13-15.5q.09-3.917 3-6.5a93 93 0 0 0 10.5-5.5c-.3-2.877-.13-5.71.5-8.5q-1.32-1.647-3-1.5c.93-1.991 1.09-3.991.5-6q3.6-3.013 6 0a41 41 0 0 0 4.5-4c.67 2 1.33 4 2 6 .89-.825 1.22-1.825 1-3" clip-rule="evenodd"/><path fill="#25254b" fill-rule="evenodd" d="M821.012 570.005c5.97 3.973 12.63 6.139 20 6.5 1.52 2.596 2.35 5.429 2.5 8.5 4.61 3.067 8.94 6.4 13 10 .5 3.317.67 6.65.5 10-2.07.945-3.9 1.612-5.5 2a14.4 14.4 0 0 0-2.5-5.5 129 129 0 0 1-13-5.5c-1.5 1.09-1.84 2.257-1 3.5a7.25 7.25 0 0 0-2 2.5q1.815 1.83 0 3.5a44 44 0 0 0 15 4c-1.8.317-2.13.984-1 2-.67 1-1.33 2-2 3a71.6 71.6 0 0 1-12.5 3.5 144 144 0 0 0-15.5-4.5 3.6 3.6 0 0 1-1-1.5 28.5 28.5 0 0 0 4.5-9c.67-1.333 1.33-1.333 2 0 2.63-4.745 6.46-8.245 11.5-10.5q-.48-5.729-6-7.5a86 86 0 0 1-20 6c-3.83-.951-5.5-3.451-5-7.5-.23-2.671.44-5.004 2-7a4.47 4.47 0 0 1-2-1.5c2.26-4.818 4.92-5.152 8-1q2.88 1.712 6 .5c.86-2.019 2.19-3.519 4-4.5" clip-rule="evenodd"/></svg>